<svg width="83" height="73" viewBox="0 0 83 73" fill="none" xmlns="http://www.w3.org/2000/svg">
<g filter="url(#filter0_d_3379_87049)">
<path d="M10.9538 22.8189L25.2237 11.6614C20.9763 1.85539 13.9407 3.91528 10.9538 6.17098C3.34029 12.1722 7.78152 19.7701 10.9538 22.8189Z" fill="url(#paint0_linear_3379_87049)"/>
<path d="M68.9602 22.8189L54.6904 11.6614C58.9378 1.85539 65.9734 3.91528 68.9602 6.17098C76.5738 12.1722 72.1325 19.7701 68.9602 22.8189Z" fill="url(#paint1_linear_3379_87049)"/>
<path d="M4.52358 39.1838C7.85462 14.1943 28.8555 8.75009 39.0196 8.5971C68.8697 8.15979 76.1573 27.5932 78.0772 39.1838C80.8949 64.7397 55.9252 68.6754 42.3915 68.5833C5.98139 69.6027 3.28336 48.4879 4.52358 39.1838Z" fill="url(#paint2_linear_3379_87049)"/>
<g filter="url(#filter1_d_3379_87049)">
<circle cx="41.6266" cy="46.4743" r="7.29852" fill="url(#paint3_linear_3379_87049)"/>
</g>
<path d="M39.6071 42.6387C38.7958 43.2663 39.1825 43.9513 39.6071 44.3204C41.1415 45.6476 42.6524 44.8454 43.1645 44.3203C44.0118 43.5657 43.6011 42.865 43.1645 42.6387C41.2579 41.6508 39.8425 42.4563 39.6071 42.6387Z" fill="#908371"/>
<path d="M36.1719 37.4635C38.426 36.305 43.6779 34.9791 47.2557 38.0085" stroke="#97D0F4" stroke-width="1.39595"/>
<path d="M38.3594 47.871C39.4004 48.1367 41.482 47.795 41.4801 44.8555C41.4793 46.001 42.1968 48.3183 45.0733 47.871" stroke="#908371" stroke-width="1.07381" stroke-linecap="round"/>
<g filter="url(#filter2_f_3379_87049)">
<ellipse cx="23.2003" cy="45.645" rx="5.08311" ry="3.44582" fill="#EFBFBE"/>
</g>
<g filter="url(#filter3_f_3379_87049)">
<ellipse cx="60.4815" cy="45.645" rx="5.08311" ry="3.44582" fill="#EFBFBE"/>
</g>
<circle cx="56.0523" cy="37.4625" r="8.81527" stroke="#97D0F4" stroke-width="1.39595"/>
<circle cx="27.1461" cy="37.4625" r="8.81527" stroke="#97D0F4" stroke-width="1.39595"/>
<ellipse cx="29.3805" cy="40.2029" rx="2.23989" ry="3.29272" fill="#59544C"/>
<ellipse cx="53.2633" cy="40.2029" rx="2.23989" ry="3.29272" fill="#59544C"/>
</g>
<defs>
<filter id="filter0_d_3379_87049" x="0.00165415" y="0.00165415" width="82.5904" height="72.9108" filterUnits="userSpaceOnUse" color-interpolation-filters="sRGB">
<feFlood flood-opacity="0" result="BackgroundImageFix"/>
<feColorMatrix in="SourceAlpha" type="matrix" values="0 0 0 0 0 0 0 0 0 0 0 0 0 0 0 0 0 0 127 0" result="hardAlpha"/>
<feOffset/>
<feGaussianBlur stdDeviation="2.14761"/>
<feComposite in2="hardAlpha" operator="out"/>
<feColorMatrix type="matrix" values="0 0 0 0 0 0 0 0 0 0 0 0 0 0 0 0 0 0 0.25 0"/>
<feBlend mode="normal" in2="BackgroundImageFix" result="effect1_dropShadow_3379_87049"/>
<feBlend mode="normal" in="SourceGraphic" in2="effect1_dropShadow_3379_87049" result="shape"/>
</filter>
<filter id="filter1_d_3379_87049" x="32.0731" y="37.9946" width="19.1037" height="19.1076" filterUnits="userSpaceOnUse" color-interpolation-filters="sRGB">
<feFlood flood-opacity="0" result="BackgroundImageFix"/>
<feColorMatrix in="SourceAlpha" type="matrix" values="0 0 0 0 0 0 0 0 0 0 0 0 0 0 0 0 0 0 127 0" result="hardAlpha"/>
<feOffset dy="1.07381"/>
<feGaussianBlur stdDeviation="1.1275"/>
<feComposite in2="hardAlpha" operator="out"/>
<feColorMatrix type="matrix" values="0 0 0 0 0.925312 0 0 0 0 0.925312 0 0 0 0 0.925312 0 0 0 1 0"/>
<feBlend mode="normal" in2="BackgroundImageFix" result="effect1_dropShadow_3379_87049"/>
<feBlend mode="normal" in="SourceGraphic" in2="effect1_dropShadow_3379_87049" result="shape"/>
</filter>
<filter id="filter2_f_3379_87049" x="13.822" y="37.904" width="18.7545" height="15.4811" filterUnits="userSpaceOnUse" color-interpolation-filters="sRGB">
<feFlood flood-opacity="0" result="BackgroundImageFix"/>
<feBlend mode="normal" in="SourceGraphic" in2="BackgroundImageFix" result="shape"/>
<feGaussianBlur stdDeviation="2.14761" result="effect1_foregroundBlur_3379_87049"/>
</filter>
<filter id="filter3_f_3379_87049" x="51.1032" y="37.904" width="18.7545" height="15.4811" filterUnits="userSpaceOnUse" color-interpolation-filters="sRGB">
<feFlood flood-opacity="0" result="BackgroundImageFix"/>
<feBlend mode="normal" in="SourceGraphic" in2="BackgroundImageFix" result="shape"/>
<feGaussianBlur stdDeviation="2.14761" result="effect1_foregroundBlur_3379_87049"/>
</filter>
<linearGradient id="paint0_linear_3379_87049" x1="13.6087" y1="4.79986" x2="17.085" y2="20.2604" gradientUnits="userSpaceOnUse">
<stop stop-color="white"/>
<stop offset="0.5" stop-color="#F8FFFF"/>
<stop offset="1" stop-color="#E9E9E9"/>
</linearGradient>
<linearGradient id="paint1_linear_3379_87049" x1="66.3054" y1="4.79986" x2="62.8291" y2="20.2604" gradientUnits="userSpaceOnUse">
<stop stop-color="white"/>
<stop offset="0.5" stop-color="#F8FFFF"/>
<stop offset="1" stop-color="#E9E9E9"/>
</linearGradient>
<linearGradient id="paint2_linear_3379_87049" x1="31.5878" y1="10.22" x2="45.6304" y2="69.949" gradientUnits="userSpaceOnUse">
<stop stop-color="white"/>
<stop offset="0.724913" stop-color="#FEFFFF"/>
<stop offset="1" stop-color="#E0E0E0"/>
</linearGradient>
<linearGradient id="paint3_linear_3379_87049" x1="37.5043" y1="41.2848" x2="43.8761" y2="53.1181" gradientUnits="userSpaceOnUse">
<stop stop-color="#FFEDCA"/>
<stop offset="0.98886" stop-color="#ECCFA4"/>
</linearGradient>
</defs>
</svg>
