<svg width="230" height="132" viewBox="0 0 230 132" fill="none" xmlns="http://www.w3.org/2000/svg">
<g clip-path="url(#clip0_2104_127662)">
<g filter="url(#filter0_dii_2104_127662)">
<path d="M170.219 5.5C199.214 5.5 222.719 29.0051 222.719 58C222.719 86.9949 199.214 110.5 170.219 110.5H123.882L114.54 127.072L105.806 110.5H55.2188C26.224 110.5 2.71875 86.9948 2.71875 58C2.71875 29.0052 26.224 5.50023 55.2188 5.5H170.219Z" fill="white"/>
</g>
<path d="M122.336 36.2734C123.228 36.2734 124.032 36.4492 124.748 36.8008C125.465 37.1523 126.024 37.6439 126.428 38.2754C126.838 38.9069 127.043 39.6263 127.043 40.4336C127.043 41.1432 126.884 41.7878 126.565 42.3672C126.246 42.9401 125.8 43.4154 125.227 43.793C124.661 44.1641 124.01 44.4082 123.274 44.5254V47.2988C125.012 47.2142 126.529 47.0872 127.825 46.918L127.961 48.3047C126.51 48.5586 124.993 48.7311 123.411 48.8223C121.829 48.9069 120.149 48.9492 118.371 48.9492H117.161L116.868 47.4258H117.063C117.74 47.4193 118.482 47.4128 119.289 47.4062C120.103 47.3932 120.813 47.3802 121.418 47.3672V44.5254C120.663 44.4147 119.999 44.1738 119.426 43.8027C118.853 43.4316 118.407 42.9564 118.088 42.377C117.776 41.7975 117.623 41.1497 117.629 40.4336C117.623 39.6263 117.818 38.9069 118.215 38.2754C118.619 37.6439 119.179 37.1523 119.895 36.8008C120.611 36.4492 121.425 36.2734 122.336 36.2734ZM122.336 37.8359C121.776 37.8424 121.275 37.9531 120.832 38.168C120.396 38.3828 120.051 38.6855 119.797 39.0762C119.55 39.4668 119.426 39.9193 119.426 40.4336C119.426 40.9479 119.55 41.4004 119.797 41.791C120.051 42.1816 120.399 42.4844 120.842 42.6992C121.285 42.9141 121.783 43.0182 122.336 43.0117C122.883 43.0182 123.375 42.9141 123.811 42.6992C124.247 42.4844 124.589 42.1816 124.836 41.791C125.09 41.4004 125.22 40.9479 125.227 40.4336C125.22 39.9193 125.093 39.4668 124.846 39.0762C124.599 38.6855 124.257 38.3828 123.821 38.168C123.385 37.9531 122.89 37.8424 122.336 37.8359ZM130.735 42.2695H133.43V43.832H130.735V52.6602H128.879V35.1602H130.735V42.2695ZM152.24 39.6914H154.779V41.2734H152.24V45.707H150.385V35.1602H152.24V39.6914ZM152.24 52.4453H141.069V46.625H152.24V52.4453ZM142.885 50.9414H150.404V48.0898H142.885V50.9414ZM148.94 38.4219H138.51V36.9375H142.807V35.0234H144.662V36.9375H148.94V38.4219ZM143.725 39.1836C144.558 39.1836 145.294 39.3138 145.932 39.5742C146.576 39.8346 147.074 40.2025 147.426 40.6777C147.784 41.1465 147.963 41.6901 147.963 42.3086C147.963 42.9336 147.784 43.4837 147.426 43.959C147.074 44.4277 146.576 44.7923 145.932 45.0527C145.294 45.3132 144.558 45.4466 143.725 45.4531C142.878 45.4466 142.133 45.3132 141.488 45.0527C140.844 44.7923 140.346 44.4277 139.994 43.959C139.643 43.4837 139.467 42.9336 139.467 42.3086C139.467 41.6901 139.643 41.1465 139.994 40.6777C140.352 40.2025 140.85 39.8346 141.488 39.5742C142.133 39.3138 142.878 39.1836 143.725 39.1836ZM143.725 40.6094C143.23 40.6029 142.797 40.668 142.426 40.8047C142.055 40.9414 141.765 41.14 141.557 41.4004C141.355 41.6608 141.257 41.9635 141.264 42.3086C141.257 42.849 141.475 43.2754 141.918 43.5879C142.367 43.8939 142.97 44.0469 143.725 44.0469C144.473 44.0469 145.076 43.8939 145.531 43.5879C145.987 43.2754 146.218 42.849 146.225 42.3086C146.218 41.9635 146.111 41.6608 145.903 41.4004C145.694 41.14 145.401 40.9414 145.024 40.8047C144.646 40.668 144.213 40.6029 143.725 40.6094ZM159.731 37.2305C159.725 38.7018 159.64 40.0788 159.478 41.3613C159.315 42.6374 159.019 43.8971 158.589 45.1406C158.159 46.3841 157.557 47.5495 156.782 48.6367L155.337 47.8164C156.294 46.5339 156.978 45.1569 157.388 43.6855C157.804 42.2077 158.049 40.5638 158.12 38.7539H155.747V37.2305H159.731ZM163.618 37.2305C163.618 38.1159 163.602 38.9395 163.569 39.7012C163.543 40.4564 163.485 41.2018 163.394 41.9375H165.454V35.6094H167.212V51.8008H165.454V43.4414H163.179C162.736 45.8958 161.912 47.9792 160.708 49.6914L159.263 48.8516C159.972 47.901 160.526 46.8724 160.923 45.7656C161.32 44.6523 161.593 43.5326 161.743 42.4062C161.893 41.2799 161.984 40.0625 162.017 38.7539H160.259V37.2305H163.618ZM170.532 52.6602H168.755V35.1602H170.532V52.6602ZM68.8769 65.7031C68.8704 66.4648 69.1471 67.2005 69.707 67.9102C70.2734 68.6133 71.0383 69.2122 72.0019 69.707C72.9654 70.1953 74.0136 70.5143 75.1464 70.6641L74.4238 72.1875C73.4732 72.0378 72.5715 71.7773 71.7187 71.4062C70.8658 71.0352 70.1106 70.5762 69.453 70.0293C68.7955 69.4824 68.2812 68.8704 67.9101 68.1934C67.5325 68.8704 67.0149 69.4824 66.3573 70.0293C65.7063 70.5762 64.9576 71.0352 64.1113 71.4062C63.2649 71.7708 62.3665 72.0312 61.4159 72.1875L60.6738 70.6641C61.8066 70.5143 62.8515 70.1953 63.8085 69.707C64.7655 69.2188 65.524 68.623 66.0839 67.9199C66.6503 67.2103 66.9368 66.4714 66.9433 65.7031V64.7461H68.8769V65.7031ZM75.8691 75.4297H68.7597V81.6602H66.9433V75.4297H59.912V73.9062H75.8691V75.4297ZM81.6609 64.9609C82.4161 64.9544 83.1095 65.0879 83.741 65.3613C84.379 65.6348 84.9031 66.0221 85.3133 66.5234C85.73 67.0182 86.0034 67.5911 86.1336 68.2422H89.5516V64.1602H91.407V73.5547H89.5516V69.7656H86.1434C86.0197 70.4297 85.7495 71.0156 85.3328 71.5234C84.9227 72.0312 84.3986 72.4251 83.7605 72.7051C83.129 72.985 82.4292 73.125 81.6609 73.125C80.7755 73.125 79.9845 72.9525 79.2879 72.6074C78.5913 72.2559 78.0477 71.7708 77.657 71.1523C77.2664 70.5273 77.0711 69.8177 77.0711 69.0234C77.0711 68.2357 77.2664 67.5326 77.657 66.9141C78.0542 66.2956 78.601 65.8138 79.2977 65.4688C79.9943 65.1237 80.782 64.9544 81.6609 64.9609ZM81.6609 66.5039C81.1141 66.5039 80.6258 66.6113 80.1961 66.8262C79.7729 67.0345 79.4409 67.3307 79.2 67.7148C78.9656 68.0924 78.8484 68.5286 78.8484 69.0234C78.8484 69.5182 78.9656 69.9577 79.2 70.3418C79.4409 70.7259 79.7729 71.0254 80.1961 71.2402C80.6258 71.4551 81.1141 71.5625 81.6609 71.5625C82.1948 71.5625 82.6701 71.4551 83.0867 71.2402C83.5099 71.0254 83.8387 70.7259 84.073 70.3418C84.3139 69.9577 84.4344 69.5182 84.4344 69.0234C84.4344 68.5286 84.3172 68.0924 84.0828 67.7148C83.8484 67.3307 83.5197 67.0345 83.0965 66.8262C82.6733 66.6113 82.1948 66.5039 81.6609 66.5039ZM81.8367 76.4258H89.5516V74.3945H91.407V81.4453H80.0008V74.3945H81.8367V76.4258ZM89.5516 79.9219V77.8906H81.8367V79.9219H89.5516ZM114.182 73.7695H107.112V75.4492C108.733 75.5404 109.989 75.8529 110.881 76.3867C111.78 76.9141 112.229 77.6302 112.229 78.5352C112.229 79.1927 111.988 79.7526 111.506 80.2148C111.025 80.6836 110.331 81.0352 109.426 81.2695C108.528 81.5104 107.45 81.6276 106.194 81.6211C104.924 81.6276 103.834 81.5104 102.922 81.2695C102.017 81.0352 101.324 80.6836 100.842 80.2148C100.361 79.7526 100.12 79.1927 100.12 78.5352C100.12 77.6302 100.569 76.9141 101.467 76.3867C102.366 75.8529 103.635 75.5404 105.276 75.4492V73.7695H98.2252V72.2656H114.182V73.7695ZM106.194 76.8555C104.853 76.8555 103.818 77.002 103.088 77.2949C102.359 77.5879 101.995 78.0013 101.995 78.5352C101.995 79.0625 102.363 79.4727 103.098 79.7656C103.834 80.0586 104.866 80.2018 106.194 80.1953C107.066 80.2018 107.815 80.14 108.44 80.0098C109.072 79.8796 109.55 79.6908 109.876 79.4434C110.208 79.1895 110.374 78.8867 110.374 78.5352C110.374 78.0013 110.006 77.5879 109.27 77.2949C108.541 77.002 107.516 76.8555 106.194 76.8555ZM112.756 66.4453H107.444C107.529 66.9987 107.838 67.5195 108.372 68.0078C108.912 68.4961 109.615 68.9062 110.481 69.2383C111.353 69.5638 112.314 69.7786 113.362 69.8828L112.698 71.3477C111.689 71.2305 110.748 71.0156 109.876 70.7031C109.01 70.3841 108.258 69.9837 107.62 69.502C106.988 69.0202 106.516 68.4733 106.204 67.8613C105.885 68.4733 105.406 69.0202 104.768 69.502C104.137 69.9837 103.388 70.3841 102.522 70.7031C101.656 71.0156 100.719 71.2305 99.7095 71.3477L99.065 69.8828C100.1 69.7786 101.047 69.5638 101.907 69.2383C102.773 68.9062 103.473 68.4961 104.006 68.0078C104.547 67.5195 104.859 66.9987 104.944 66.4453H99.69V64.9609H112.756V66.4453ZM129.623 81.6992H127.767V64.1602H129.623V81.6992ZM120.267 65.4688C121.133 65.4688 121.908 65.7227 122.591 66.2305C123.275 66.7318 123.809 67.4479 124.193 68.3789C124.583 69.3034 124.779 70.3776 124.779 71.6016C124.779 72.832 124.583 73.9128 124.193 74.8438C123.809 75.7747 123.275 76.4941 122.591 77.002C121.908 77.5033 121.133 77.7539 120.267 77.7539C119.388 77.7539 118.607 77.5033 117.923 77.002C117.24 76.4941 116.703 75.778 116.312 74.8535C115.928 73.9225 115.736 72.8385 115.736 71.6016C115.736 70.3711 115.928 69.2936 116.312 68.3691C116.703 67.4382 117.24 66.722 117.923 66.2207C118.607 65.7194 119.388 65.4688 120.267 65.4688ZM120.267 67.1289C119.727 67.1289 119.248 67.3112 118.831 67.6758C118.421 68.0404 118.102 68.5612 117.874 69.2383C117.647 69.9089 117.533 70.6966 117.533 71.6016C117.533 72.513 117.647 73.3073 117.874 73.9844C118.102 74.6615 118.421 75.1823 118.831 75.5469C119.248 75.9115 119.727 76.0938 120.267 76.0938C120.801 76.0938 121.273 75.9115 121.683 75.5469C122.093 75.1823 122.412 74.6615 122.64 73.9844C122.868 73.3073 122.982 72.513 122.982 71.6016C122.982 70.6966 122.868 69.9089 122.64 69.2383C122.412 68.5612 122.093 68.0404 121.683 67.6758C121.273 67.3112 120.801 67.1289 120.267 67.1289ZM147.094 81.6602H145.317V64.1602H147.094V81.6602ZM143.539 80.8008H141.762V72.3633H139.789C139.737 73.4961 139.548 74.4792 139.223 75.3125C138.897 76.1458 138.458 76.7871 137.905 77.2363C137.351 77.679 136.716 77.8971 136 77.8906C135.245 77.8971 134.581 77.6497 134.008 77.1484C133.442 76.6471 133.002 75.931 132.69 75C132.384 74.0625 132.231 72.9688 132.231 71.7188C132.231 70.4688 132.384 69.3783 132.69 68.4473C133.002 67.5163 133.442 66.8034 134.008 66.3086C134.581 65.8073 135.245 65.5599 136 65.5664C136.703 65.5599 137.328 65.7715 137.875 66.2012C138.422 66.6243 138.858 67.2363 139.184 68.0371C139.516 68.8314 139.715 69.7721 139.78 70.8594H141.762V64.4922H143.539V80.8008ZM136 67.3047C135.577 67.3047 135.213 67.4805 134.907 67.832C134.601 68.1771 134.363 68.6816 134.194 69.3457C134.031 70.0033 133.95 70.7943 133.95 71.7188C133.95 72.6432 134.031 73.4375 134.194 74.1016C134.363 74.7591 134.601 75.2637 134.907 75.6152C135.213 75.9603 135.577 76.1328 136 76.1328C136.43 76.1328 136.801 75.9603 137.114 75.6152C137.426 75.2637 137.667 74.7591 137.836 74.1016C138.006 73.4375 138.09 72.6432 138.09 71.7188C138.09 70.7943 138.006 70.0033 137.836 69.3457C137.667 68.6816 137.426 68.1771 137.114 67.832C136.801 67.4805 136.43 67.3047 136 67.3047ZM164.956 79.4727H148.941V77.9297H152.769V73.3594C152.04 72.9557 151.473 72.4447 151.07 71.8262C150.666 71.2077 150.464 70.5143 150.464 69.7461C150.464 68.8411 150.738 68.0436 151.284 67.3535C151.838 66.6634 152.603 66.1296 153.579 65.752C154.556 65.3678 155.666 65.1758 156.909 65.1758C158.159 65.1758 159.273 65.3678 160.249 65.752C161.232 66.1296 161.997 66.6634 162.544 67.3535C163.098 68.0436 163.374 68.8411 163.374 69.7461C163.374 70.5078 163.179 71.1947 162.788 71.8066C162.398 72.4121 161.844 72.9167 161.128 73.3203V77.9297H164.956V79.4727ZM156.909 66.6602C155.998 66.6602 155.191 66.7871 154.488 67.041C153.784 67.2884 153.238 67.6465 152.847 68.1152C152.456 68.5775 152.261 69.1211 152.261 69.7461C152.261 70.3646 152.456 70.9082 152.847 71.377C153.238 71.8457 153.784 72.2103 154.488 72.4707C155.191 72.7246 155.998 72.8516 156.909 72.8516C157.814 72.8516 158.618 72.7246 159.321 72.4707C160.031 72.2103 160.585 71.8457 160.982 71.377C161.379 70.9082 161.577 70.3646 161.577 69.7461C161.577 69.1276 161.379 68.584 160.982 68.1152C160.591 67.6465 160.041 67.2884 159.331 67.041C158.628 66.7871 157.821 66.6602 156.909 66.6602ZM159.253 77.9297V74.0332C158.543 74.209 157.762 74.2969 156.909 74.2969C156.089 74.2969 155.321 74.2122 154.605 74.043V77.9297H159.253ZM168.893 75.918H166.959L166.783 65.8594H169.068L168.893 75.918ZM167.936 80.1367C167.688 80.1367 167.454 80.0749 167.232 79.9512C167.018 79.8275 166.848 79.6582 166.725 79.4434C166.601 79.2285 166.542 78.9974 166.549 78.75C166.542 78.5026 166.601 78.2715 166.725 78.0566C166.848 77.8418 167.018 77.6725 167.232 77.5488C167.454 77.4251 167.688 77.3633 167.936 77.3633C168.177 77.3633 168.404 77.4251 168.619 77.5488C168.834 77.6725 169.003 77.8418 169.127 78.0566C169.257 78.2715 169.322 78.5026 169.322 78.75C169.322 78.9974 169.257 79.2285 169.127 79.4434C169.003 79.6582 168.834 79.8275 168.619 79.9512C168.404 80.0749 168.177 80.1367 167.936 80.1367Z" fill="#454545"/>
<path d="M105.667 46.9716C105.482 46.6985 105.081 46.6953 104.891 46.9652L102.345 50.5866C102.257 50.7122 102.113 50.787 101.959 50.787H98.8532C98.4682 50.787 98.2453 50.3507 98.4709 50.0387L102.935 43.8666C103.053 43.7027 103.054 43.4814 102.937 43.3166L98.6194 37.2493C98.3971 36.9369 98.6204 36.5039 99.0038 36.5039H102.274C102.43 36.5039 102.575 36.5804 102.663 36.7083L105.006 40.1146C105.192 40.3851 105.591 40.3876 105.78 40.1196L108.196 36.7033C108.284 36.5783 108.428 36.5039 108.581 36.5039H111.608C111.993 36.5039 112.216 36.94 111.991 37.252L107.686 43.211C107.567 43.3754 107.567 43.5973 107.685 43.7621L112.182 50.0404C112.406 50.3526 112.183 50.787 111.799 50.787H108.507C108.351 50.787 108.204 50.7096 108.117 50.5802L105.667 46.9716Z" fill="black"/>
<path d="M96.8464 50.3152V36.9757C96.8464 36.7152 96.6351 36.5039 96.3745 36.5039H93.3625C93.1019 36.5039 92.8906 36.7152 92.8906 36.9757V50.3152C92.8906 50.5758 93.1019 50.787 93.3625 50.787H96.3745C96.6351 50.787 96.8464 50.5758 96.8464 50.3152Z" fill="black"/>
<path d="M75.7652 31.0859C76.0257 31.0859 76.237 31.2972 76.237 31.5578V50.3131C76.237 50.5737 76.0257 50.785 75.7652 50.785H72.7531C72.4925 50.785 72.2812 50.5737 72.2812 50.3131V31.5578C72.2812 31.2972 72.4925 31.0859 72.7531 31.0859H75.7652Z" fill="black"/>
<path d="M65.0351 50.997C63.5838 50.997 62.2829 50.6872 61.1324 50.0678C59.982 49.4306 59.0794 48.5545 58.4245 47.4394C57.7873 46.3244 57.4688 45.0589 57.4688 43.643C57.4688 42.2271 57.7873 40.9616 58.4245 39.8466C59.0794 38.7315 59.982 37.8643 61.1324 37.2448C62.2829 36.6076 63.5838 36.2891 65.0351 36.2891C66.4687 36.2891 67.7165 36.6076 68.7784 37.2448C69.7214 37.7949 70.4411 38.5613 70.9375 39.5441C71.0457 39.7582 70.9569 40.0154 70.748 40.1335L68.4846 41.4128C68.253 41.5437 67.9613 41.4553 67.8151 41.233C67.1372 40.2025 66.2017 39.6873 65.0085 39.6873C63.982 39.6873 63.1324 40.0413 62.4599 40.7492C61.805 41.4572 61.4776 42.4218 61.4776 43.643C61.4776 44.8642 61.805 45.8288 62.4599 46.5368C63.1324 47.2448 63.982 47.5987 65.0085 47.5987C66.2137 47.5987 67.149 47.0866 67.8144 46.0623C67.9611 45.8365 68.2569 45.7462 68.4904 45.8802L70.7498 47.1769C70.9577 47.2963 71.0449 47.5537 70.9356 47.7671C70.4392 48.7358 69.7202 49.5027 68.7784 50.0678C67.7165 50.6872 66.4687 50.997 65.0351 50.997Z" fill="black"/>
<path d="M93.9397 31.5337L94.6617 30.5404C94.8322 30.3058 95.1809 30.3026 95.3558 30.5341L96.1163 31.541C96.1769 31.6212 96.2637 31.6778 96.3616 31.701L97.2339 31.9071C97.5288 31.9769 97.6621 32.3206 97.4914 32.571L96.742 33.6694C96.6776 33.7637 96.6533 33.8797 96.6742 33.992L96.8408 34.8852C96.9037 35.222 96.5682 35.4943 96.2515 35.3637L95.1617 34.9142C95.062 34.8731 94.9505 34.8708 94.8491 34.9077L93.4746 35.4086C93.1596 35.5234 92.8396 35.2512 92.9024 34.9218L93.0824 33.9777C93.102 33.875 93.0836 33.7687 93.0307 33.6784L92.3795 32.5671C92.2312 32.314 92.3728 31.9899 92.6593 31.9268L93.6831 31.7016C93.7863 31.6789 93.8776 31.6191 93.9397 31.5337Z" fill="url(#paint0_linear_2104_127662)"/>
<path d="M84.2861 36.2891C86.392 36.2891 88.0022 36.8201 89.1172 37.8818C90.2499 38.926 90.8163 40.5101 90.8164 42.6338V50.3125C90.8164 50.5731 90.6053 50.7842 90.3447 50.7842H87.501C87.2944 50.7842 87.126 50.6168 87.126 50.4102C87.126 50.4065 87.1251 50.403 87.125 50.3994V49.5488C87.125 49.3781 86.9013 49.2397 86.7852 49.4092C86.729 49.5118 86.5288 49.7973 86.1406 50.123H86.1416C85.3606 50.7048 84.3084 50.9971 82.9844 50.9971C81.9405 50.997 81.0382 50.811 80.2773 50.4395C79.5163 50.0678 78.9315 49.5543 78.5244 48.8994C78.1175 48.2447 77.9141 47.5015 77.9141 46.6699C77.9141 45.3426 78.392 44.2982 79.3477 43.5371C80.3034 42.7761 81.7726 42.3955 83.7549 42.3955H86.3887C86.6493 42.3955 86.8645 42.1832 86.8389 41.9238C86.7978 41.5082 86.6988 41.1695 86.542 40.9082C86.0641 40.0235 85.1351 39.5811 83.7549 39.5811C83.0292 39.5811 82.3124 39.7053 81.6045 39.9531C81.1264 40.1125 80.6943 40.3143 80.3096 40.5586C80.0521 40.7217 79.6978 40.6443 79.5645 40.3701L78.5879 38.3633C78.4895 38.1607 78.547 37.915 78.7344 37.79C79.3964 37.3487 80.1761 36.9987 81.0732 36.7402C82.1175 36.4394 83.1888 36.2891 84.2861 36.2891ZM84.1797 44.8115C82.5692 44.8115 81.7638 45.3686 81.7637 46.4834C81.7637 47.0143 81.9584 47.4392 82.3477 47.7578C82.737 48.0586 83.2767 48.2089 83.9668 48.209C84.6571 48.209 85.2592 48.05 85.7725 47.7314C86.2856 47.3952 86.8611 46.7531 86.8613 46.0947V45.2832C86.8613 45.0226 86.6493 44.8115 86.3887 44.8115H84.1797Z" fill="black"/>
</g>
<defs>
<filter id="filter0_dii_2104_127662" x="-2.68125" y="-0.9" width="240.8" height="142.37" filterUnits="userSpaceOnUse" color-interpolation-filters="sRGB">
<feFlood flood-opacity="0" result="BackgroundImageFix"/>
<feColorMatrix in="SourceAlpha" type="matrix" values="0 0 0 0 0 0 0 0 0 0 0 0 0 0 0 0 0 0 127 0" result="hardAlpha"/>
<feOffset dx="5" dy="4"/>
<feGaussianBlur stdDeviation="5.2"/>
<feComposite in2="hardAlpha" operator="out"/>
<feColorMatrix type="matrix" values="0 0 0 0 0 0 0 0 0 0 0 0 0 0 0 0 0 0 0.25 0"/>
<feBlend mode="normal" in2="BackgroundImageFix" result="effect1_dropShadow_2104_127662"/>
<feBlend mode="normal" in="SourceGraphic" in2="effect1_dropShadow_2104_127662" result="shape"/>
<feColorMatrix in="SourceAlpha" type="matrix" values="0 0 0 0 0 0 0 0 0 0 0 0 0 0 0 0 0 0 127 0" result="hardAlpha"/>
<feOffset dx="-4" dy="-3"/>
<feGaussianBlur stdDeviation="3.15"/>
<feComposite in2="hardAlpha" operator="arithmetic" k2="-1" k3="1"/>
<feColorMatrix type="matrix" values="0 0 0 0 0.361854 0 0 0 0 0.585205 0 0 0 0 1 0 0 0 0.25 0"/>
<feBlend mode="normal" in2="shape" result="effect2_innerShadow_2104_127662"/>
<feColorMatrix in="SourceAlpha" type="matrix" values="0 0 0 0 0 0 0 0 0 0 0 0 0 0 0 0 0 0 127 0" result="hardAlpha"/>
<feOffset dx="2" dy="-3"/>
<feGaussianBlur stdDeviation="2"/>
<feComposite in2="hardAlpha" operator="arithmetic" k2="-1" k3="1"/>
<feColorMatrix type="matrix" values="0 0 0 0 0.854902 0 0 0 0 0.905882 0 0 0 0 1 0 0 0 1 0"/>
<feBlend mode="normal" in2="effect2_innerShadow_2104_127662" result="effect3_innerShadow_2104_127662"/>
</filter>
<linearGradient id="paint0_linear_2104_127662" x1="94.9614" y1="30.0689" x2="96.8414" y2="35.1081" gradientUnits="userSpaceOnUse">
<stop stop-color="#03AEFF"/>
<stop offset="1" stop-color="#287FEC"/>
</linearGradient>
<clipPath id="clip0_2104_127662">
<rect width="230" height="132" fill="white"/>
</clipPath>
</defs>
</svg>
