<svg width="110" height="46" viewBox="0 0 110 46" fill="none" xmlns="http://www.w3.org/2000/svg">
<path opacity="0.7" d="M16.0437 2.60434L16.7368 2.1508C17.3086 1.77669 18.0788 2.07339 18.2517 2.73439L18.4746 3.58603C18.5343 3.81383 18.6724 4.01329 18.8646 4.14926L19.1804 4.37262C19.7461 4.77274 19.7433 5.61296 19.175 6.0093L18.3613 6.5767C18.1498 6.72421 18.0034 6.94775 17.9528 7.20062L17.904 7.44395C17.7479 8.22396 16.7876 8.51819 16.2213 7.95956L15.8457 7.58913C15.663 7.40888 15.4179 7.3058 15.1613 7.30123L14.2295 7.28465C13.4516 7.2708 12.9868 6.41299 13.4 5.75374L13.5966 5.44011C13.7218 5.24025 13.7724 5.00254 13.7394 4.76899L13.6011 3.7911C13.5071 3.12659 14.0814 2.55996 14.7446 2.66289L15.3428 2.75572C15.5871 2.79364 15.8368 2.73971 16.0437 2.60434Z" fill="url(#paint0_linear_1946_42509)"/>
<path opacity="0.7" d="M15.1034 20.0227L15.1034 19.9945C15.1028 19.3676 15.717 18.9248 16.3115 19.1234L16.402 19.1536C16.5719 19.2104 16.7563 19.2054 16.9229 19.1395C17.413 18.9455 17.9469 19.2967 17.963 19.8235L17.9753 20.2235C17.9807 20.4024 18.0551 20.5723 18.1829 20.6977C18.577 21.0846 18.3836 21.7544 17.844 21.8716L17.7034 21.9022C17.5098 21.9442 17.3398 22.0591 17.2285 22.223L17.0419 22.498C16.7213 22.9705 16.0078 22.9119 15.7685 22.3936C15.6959 22.2364 15.5701 22.11 15.4134 22.0366L15.1567 21.9164C14.6438 21.6763 14.5083 21.009 14.887 20.5878C15.0266 20.4327 15.1036 20.2313 15.1034 20.0227Z" fill="url(#paint1_linear_1946_42509)"/>
<path opacity="0.7" d="M2.45118 33.7674L2.47262 33.749C2.94881 33.3414 3.68448 33.5207 3.91965 34.1017L3.95542 34.1901C4.02262 34.3562 4.14626 34.4932 4.30454 34.577C4.77032 34.8236 4.85017 35.4577 4.46009 35.8122L4.16396 36.0812C4.03145 36.2016 3.95058 36.3686 3.93823 36.5472C3.90014 37.0981 3.26521 37.3862 2.82554 37.052L2.71106 36.965C2.55333 36.8451 2.35554 36.7904 2.15864 36.8123L1.82832 36.8491C1.26088 36.9122 0.841878 36.3317 1.08054 35.813C1.1529 35.6558 1.16734 35.478 1.12132 35.3111L1.04597 35.0379C0.895387 34.4919 1.31474 33.9555 1.88094 33.9699C2.08953 33.9752 2.29268 33.903 2.45118 33.7674Z" fill="url(#paint2_linear_1946_42509)"/>
<path opacity="0.6" d="M101.127 9.56176L101.127 9.53354C101.126 8.9067 101.74 8.46385 102.335 8.66247L102.425 8.69269C102.595 8.74944 102.78 8.74443 102.946 8.67853C103.436 8.48461 103.97 8.83579 103.986 9.3626L103.999 9.76252C104.004 9.94147 104.079 10.1114 104.206 10.2368C104.6 10.6236 104.407 11.2935 103.867 11.4107L103.727 11.4412C103.533 11.4833 103.363 11.5981 103.252 11.7621L103.065 12.0371C102.745 12.5095 102.031 12.451 101.792 11.9326C101.719 11.7755 101.594 11.6491 101.437 11.5757L101.18 11.4555C100.667 11.2153 100.532 10.548 100.91 10.1269C101.05 9.97174 101.127 9.77041 101.127 9.56176Z" fill="url(#paint3_linear_1946_42509)"/>
<path opacity="0.3" d="M104.083 21.3991L104.078 21.2058C104.061 20.5227 104.719 20.0242 105.372 20.2252L105.627 20.3037C105.834 20.3673 106.056 20.356 106.256 20.2715C106.843 20.0231 107.498 20.4321 107.533 21.0683L107.559 21.5512C107.571 21.7673 107.665 21.9705 107.823 22.1184C108.311 22.5745 108.097 23.3896 107.448 23.5468L107.279 23.5878C107.046 23.6442 106.844 23.7879 106.714 23.9892L106.496 24.327C106.123 24.9071 105.259 24.857 104.954 24.2374C104.862 24.0496 104.707 23.9004 104.515 23.8162L104.177 23.6674C103.562 23.3974 103.383 22.6108 103.82 22.1012L103.842 22.0747C104.003 21.8869 104.089 21.6463 104.083 21.3991Z" fill="url(#paint4_linear_1946_42509)"/>
<path opacity="0.6" d="M94.4169 36.9963L94.3999 36.1682C94.3859 35.485 95.0458 34.9894 95.698 35.1932L96.5382 35.4558C96.763 35.5261 97.0053 35.5147 97.2225 35.4239L97.5794 35.2746C98.2186 35.0071 98.9295 35.455 98.9641 36.1471L99.0137 37.1378C99.0266 37.3953 99.1385 37.638 99.3261 37.815L99.5065 37.9853C100.085 38.5313 99.8253 39.5015 99.0514 39.6854L98.5381 39.8074C98.2884 39.8668 98.0711 40.0199 97.9311 40.235L97.423 41.0162C96.9988 41.6684 96.025 41.6076 95.6852 40.9077L95.5235 40.5747C95.4205 40.3626 95.2458 40.1936 95.0302 40.0978L94.1278 39.6965C93.5146 39.4238 93.3387 38.6364 93.7776 38.1288L94.1735 37.6708C94.3352 37.4838 94.4219 37.2435 94.4169 36.9963Z" fill="url(#paint5_linear_1946_42509)"/>
<path opacity="0.7" d="M23.9105 37.0385L25.0853 35.9537C25.5873 35.4901 26.396 35.6553 26.676 36.2786L27.3564 37.7935C27.4529 38.0083 27.6221 38.1822 27.8342 38.2845L28.7629 38.7324C29.387 39.0334 29.5233 39.8626 29.0283 40.3475L27.7236 41.6257C27.5393 41.8062 27.432 42.0508 27.4239 42.3086L27.3928 43.2976C27.3678 44.0927 26.4695 44.5417 25.8185 44.0845L24.713 43.308C24.503 43.1604 24.2442 43.0993 23.9904 43.1373L22.1602 43.4109C21.3908 43.5259 20.7904 42.7568 21.0889 42.0383L21.5155 41.0113C21.6059 40.7934 21.6165 40.5506 21.5453 40.3258L21.0055 38.6215C20.8029 37.9817 21.2756 37.3279 21.9466 37.3196L23.2443 37.3038C23.4915 37.3008 23.7289 37.2063 23.9105 37.0385Z" fill="url(#paint6_linear_1946_42509)"/>
<path opacity="0.7" d="M4.9363 8.55749L4.95087 8.53685C5.27436 8.07848 5.95205 8.07231 6.28384 8.52471L6.33431 8.59353C6.42912 8.7228 6.5665 8.81447 6.72226 8.85238C7.18059 8.96396 7.3893 9.49655 7.1288 9.88981L6.93105 10.1884C6.84256 10.3219 6.8091 10.4846 6.83767 10.6422C6.92577 11.1286 6.43825 11.5181 5.98333 11.3249L5.86486 11.2745C5.70166 11.2052 5.51805 11.2013 5.35203 11.2636L5.07354 11.3681C4.59512 11.5476 4.10395 11.1361 4.19697 10.6336C4.22517 10.4813 4.19861 10.3239 4.122 10.1893L3.99655 9.96881C3.74586 9.52823 3.99173 8.97064 4.48611 8.85861C4.66824 8.81734 4.82862 8.71007 4.9363 8.55749Z" fill="url(#paint7_linear_1946_42509)"/>
<path opacity="0.32" d="M78.0222 41.8895L78.0368 41.8689C78.3603 41.4105 79.038 41.4043 79.3698 41.8567L79.4202 41.9256C79.5151 42.0548 79.6524 42.1465 79.8082 42.1844C80.2665 42.296 80.4752 42.8286 80.2147 43.2218L80.017 43.5204C79.9285 43.654 79.895 43.8166 79.9236 43.9743C80.0117 44.4606 79.5242 44.8501 79.0693 44.6569L78.9508 44.6066C78.7876 44.5372 78.604 44.5333 78.438 44.5956L78.1595 44.7001C77.6811 44.8797 77.1899 44.4681 77.2829 43.9657C77.3111 43.8133 77.2846 43.6559 77.2079 43.5213L77.0825 43.3008C76.8318 42.8603 77.0777 42.3027 77.5721 42.1906C77.7542 42.1494 77.9146 42.0421 78.0222 41.8895Z" fill="url(#paint8_linear_1946_42509)"/>
<defs>
<linearGradient id="paint0_linear_1946_42509" x1="17.8481" y1="1.36937" x2="17.777" y2="8.50124" gradientUnits="userSpaceOnUse">
<stop stop-color="white"/>
<stop offset="1" stop-color="#F6FBFF"/>
</linearGradient>
<linearGradient id="paint1_linear_1946_42509" x1="15.0738" y1="18.7395" x2="18.7841" y2="21.2151" gradientUnits="userSpaceOnUse">
<stop stop-color="white"/>
<stop offset="1" stop-color="#F6FBFF"/>
</linearGradient>
<linearGradient id="paint2_linear_1946_42509" x1="3.40756" y1="32.9112" x2="3.93545" y2="37.3404" gradientUnits="userSpaceOnUse">
<stop stop-color="white"/>
<stop offset="1" stop-color="#F6FBFF"/>
</linearGradient>
<linearGradient id="paint3_linear_1946_42509" x1="101.097" y1="8.27852" x2="104.808" y2="10.7541" gradientUnits="userSpaceOnUse">
<stop stop-color="white"/>
<stop offset="1" stop-color="#F6FBFF"/>
</linearGradient>
<linearGradient id="paint4_linear_1946_42509" x1="104.01" y1="19.8414" x2="108.565" y2="22.7263" gradientUnits="userSpaceOnUse">
<stop stop-color="white"/>
<stop offset="1" stop-color="#F6FBFF"/>
</linearGradient>
<linearGradient id="paint5_linear_1946_42509" x1="94.3267" y1="34.8116" x2="100.336" y2="38.6537" gradientUnits="userSpaceOnUse">
<stop stop-color="white"/>
<stop offset="1" stop-color="#E1F2FF"/>
</linearGradient>
<linearGradient id="paint6_linear_1946_42509" x1="26.036" y1="34.9957" x2="27.4744" y2="44.1279" gradientUnits="userSpaceOnUse">
<stop stop-color="white"/>
<stop offset="1" stop-color="#F6FBFF"/>
</linearGradient>
<linearGradient id="paint7_linear_1946_42509" x1="5.57779" y1="7.60446" x2="7.00966" y2="11.331" gradientUnits="userSpaceOnUse">
<stop stop-color="white"/>
<stop offset="1" stop-color="#F6FBFF"/>
</linearGradient>
<linearGradient id="paint8_linear_1946_42509" x1="78.6637" y1="40.9365" x2="80.0956" y2="44.663" gradientUnits="userSpaceOnUse">
<stop stop-color="white"/>
<stop offset="1" stop-color="#F6FBFF"/>
</linearGradient>
</defs>
</svg>
