<svg width="123" height="41" viewBox="0 -11 123 41" fill="none" xmlns="http://www.w3.org/2000/svg">
<path d="M19.4874 1.77532V21.2706C19.4874 21.4279 19.3616 21.5577 19.2004 21.5577H15.5907C15.4335 21.5577 15.3037 21.4318 15.3037 21.2706V11.2635C15.3037 10.9253 14.8201 10.8703 14.7414 11.1966L12.3428 21.3375C12.3114 21.4672 12.1973 21.5577 12.0637 21.5577H7.42379C7.2901 21.5577 7.17606 21.4672 7.14461 21.3375L4.74603 11.1966C4.66739 10.8663 4.18374 10.9253 4.18374 11.2635V21.2706C4.18374 21.4279 4.05792 21.5577 3.8967 21.5577H0.287041C0.129757 21.5577 0 21.4318 0 21.2706V1.77532C0 1.61804 0.125825 1.48828 0.287041 1.48828H5.55211C5.68187 1.48828 5.7959 1.57872 5.82736 1.70455L9.47241 16.0921C9.54318 16.3791 9.95212 16.3791 10.0268 16.0921L13.6483 1.70455C13.6797 1.57872 13.7938 1.48828 13.9235 1.48828H19.1886C19.3459 1.48828 19.4756 1.61411 19.4756 1.77532H19.4874Z" fill="#060101"/>
<path d="M35.5912 18.4397C35.7209 18.5262 35.7563 18.7031 35.6698 18.8329C34.2071 21.0152 32.4494 21.9432 28.7061 21.9196C23.9954 21.9196 20.5273 19.5407 20.5273 14.2756C20.5273 9.01053 23.7949 6.21875 28.5803 6.21875C32.0366 6.21875 34.3801 7.72081 35.6738 10.4143C35.7445 10.5598 35.6738 10.7328 35.5283 10.7957L32.5242 12.0776C32.3905 12.1365 32.2292 12.0815 32.1624 11.9517C31.435 10.5637 30.4126 9.9739 28.7061 9.9739C26.2997 9.9739 24.833 11.6726 24.833 14.2677C24.833 16.6702 26.4805 18.1487 28.8359 18.1487C30.4952 18.1487 31.6198 17.5982 32.3787 16.5916C32.4691 16.4736 32.6382 16.4461 32.7601 16.5287L35.5873 18.424L35.5912 18.4397Z" fill="#060101"/>
<path d="M37.1464 1.12503H41.0077C41.165 1.12503 41.2947 1.25085 41.2947 1.41207V16.704C41.2947 18.4302 41.3852 18.9531 42.3013 19.5823C42.3957 19.6491 42.439 19.7671 42.4154 19.8811L41.7823 22.5431C41.7508 22.6729 41.629 22.7673 41.4953 22.7633C39.541 22.6965 38.44 22.378 37.8306 21.7017C37.1228 20.8995 36.8672 20.1485 36.8672 17.9151V1.40814C36.8672 1.25085 36.993 1.12109 37.1542 1.12109L37.1464 1.12503Z" fill="#060101"/>
<path d="M53.8021 7.10363V6.60032C53.8021 6.44303 53.928 6.31327 54.0892 6.31327H57.7971C57.9544 6.31327 58.0842 6.4391 58.0842 6.60032V21.267C58.0842 21.4243 57.9583 21.5541 57.7971 21.5541H54.0892C53.9319 21.5541 53.8021 21.4282 53.8021 21.267V21.0193C53.8021 20.7834 53.5347 20.6536 53.3421 20.7952C52.4062 21.4911 50.7783 21.9158 49.4218 21.9158C44.7622 21.9158 42.3047 19.2695 42.3047 14.0556C42.3047 8.84161 45.0139 6.19531 49.4218 6.19531C50.8924 6.19531 52.4023 6.59245 53.3381 7.32382C53.5269 7.47324 53.8021 7.34348 53.8021 7.10363ZM53.7785 14.0595C53.7785 12.1446 52.9174 9.95832 50.1846 9.95832C47.8529 9.95832 46.6143 11.5823 46.6143 14.0595C46.6143 16.8985 48.0337 18.1607 50.1846 18.1607C52.8702 18.1607 53.7785 16.171 53.7785 14.0595Z" fill="#060101"/>
<path d="M65.5508 6.12109C68.8341 6.12109 70.5996 7.7765 71.4568 9.9077C71.5236 10.0728 71.4293 10.2577 71.2562 10.297L67.8943 11.0755C67.7803 11.1031 67.6623 11.0519 67.5955 10.9536C67.1118 10.2577 66.3844 9.85658 65.3738 9.85658C64.2611 9.85658 63.6516 10.2694 63.6516 10.7295C63.6516 11.1896 63.9308 11.5316 66.7422 12.5265C70.2378 13.7651 71.7832 15.3183 71.7832 17.6225C71.7832 20.1705 69.7306 21.9674 65.3778 21.9674C62.0473 21.9674 59.9751 20.3553 59.0982 18.1022C59.0392 17.9488 59.114 17.7758 59.2712 17.7247L62.641 16.5844C62.7669 16.5411 62.9084 16.5923 62.9753 16.7063C63.5769 17.7365 64.7604 18.2319 65.8575 18.2319C66.9545 18.2319 67.4264 17.8427 67.4264 17.3118C67.4264 16.7063 67.0725 16.1479 64.033 15.1531C60.5138 13.9892 59.2988 12.8253 59.2988 10.8829C59.2988 7.94558 61.8074 6.12896 65.5547 6.12896L65.5508 6.12109Z" fill="#060101"/>
<path d="M78.7461 6.12109C82.0294 6.12109 83.7949 7.7765 84.6521 9.9077C84.7189 10.0728 84.6246 10.2577 84.4516 10.297L81.0896 11.0755C80.9756 11.1031 80.8576 11.0519 80.7908 10.9536C80.3071 10.2577 79.5797 9.85658 78.5692 9.85658C77.4564 9.85658 76.8469 10.2694 76.8469 10.7295C76.8469 11.1896 77.1261 11.5316 79.9375 12.5265C83.4332 13.7651 84.9785 15.3183 84.9785 17.6225C84.9785 20.1705 82.9259 21.9674 78.5731 21.9674C75.2426 21.9674 73.1704 20.3553 72.2935 18.1022C72.2346 17.9488 72.3093 17.7758 72.4666 17.7247L75.8364 16.5844C75.9622 16.5411 76.1037 16.5923 76.1706 16.7063C76.7722 17.7365 77.9558 18.2319 79.0528 18.2319C80.1499 18.2319 80.6217 17.8427 80.6217 17.3118C80.6217 16.7063 80.2678 16.1479 77.2283 15.1531C73.7091 13.9892 72.4941 12.8253 72.4941 10.8829C72.4941 7.94558 75.0028 6.12896 78.75 6.12896L78.7461 6.12109Z" fill="#060101"/>
<path d="M85.9414 21.27V7.81439C85.9414 7.6571 86.0672 7.52734 86.2284 7.52734H89.9875C90.1448 7.52734 90.2746 7.65317 90.2746 7.81439V21.27C90.2746 21.4273 90.1487 21.557 89.9875 21.557H86.2284C86.0712 21.557 85.9414 21.4312 85.9414 21.27Z" fill="#060101"/>
<path d="M105.277 21.5577H101.541C101.384 21.5577 101.254 21.4318 101.254 21.2706V12.6987C101.254 10.6854 100.369 9.88328 98.9262 9.88328C97.2039 9.88328 96.04 11.1219 96.04 13.0132V21.2706C96.04 21.4279 95.9142 21.5577 95.753 21.5577H92.0175C91.8602 21.5577 91.7305 21.4318 91.7305 21.2706V6.84377C91.7305 6.68649 91.8563 6.55673 92.0175 6.55673H95.753C95.9103 6.55673 96.04 6.68255 96.04 6.84377V6.94994C96.04 7.178 96.2956 7.31169 96.4844 7.18586C97.4713 6.51741 98.7375 6.24609 100.271 6.24609C103.613 6.24609 105.564 8.57389 105.564 11.924V21.2706C105.564 21.4279 105.438 21.5577 105.277 21.5577Z" fill="#060101"/>
<path d="M122.094 6.31721C122.251 6.31721 122.381 6.44303 122.381 6.60425V20.3194C122.381 23.2331 121.013 25.1244 114.505 25.1008H110.192C110.042 25.1008 109.916 24.9828 109.908 24.8334L109.716 21.6917C109.704 21.5265 109.838 21.3889 109.999 21.3889H113.723C117.497 21.3889 118.103 20.5396 118.103 19.5919C118.103 19.3639 117.851 19.2302 117.659 19.356C116.731 19.9616 115.083 20.3194 113.723 20.3194C109.366 20.3194 106.605 18.1843 106.605 13.2573C106.605 8.96351 109.519 6.19531 113.746 6.19531C115.217 6.19531 116.703 6.59245 117.639 7.32382C117.828 7.47324 118.103 7.34348 118.103 7.10363V6.60425C118.103 6.44697 118.229 6.31721 118.39 6.31721H122.098H122.094ZM118.071 13.2573C118.071 11.3424 116.908 9.90721 114.478 9.90721C112.401 9.90721 110.907 11.1222 110.907 13.2573C110.907 15.3925 112.452 16.6075 114.478 16.6075C116.833 16.6075 118.071 15.3689 118.071 13.2573Z" fill="#060101"/>
<path d="M90.2944 1.85595L88.1042 0.59375L85.918 1.85595V4.38428L88.1042 5.64649L90.2944 4.38428V1.85595Z" stroke="url(#paint0_linear_2810_90425)" stroke-width="1.18749" stroke-linecap="round" stroke-linejoin="round"/>
<defs>
<linearGradient id="paint0_linear_2810_90425" x1="85.1748" y1="2.33567" x2="91.0376" y2="3.90457" gradientUnits="userSpaceOnUse">
<stop stop-color="#D8413D"/>
<stop offset="0.49" stop-color="#A9221D"/>
<stop offset="1" stop-color="#5A0E12"/>
</linearGradient>
</defs>
</svg>
