<svg width="24" height="24" viewBox="0 0 24 24" fill="none" xmlns="http://www.w3.org/2000/svg">
    <path d="M20 19.9996V14.9996H15M4 3.99959V8.99959H9M19.938 10.9996C19.7287 9.337 19.0026 7.78209 17.8623 6.55423C16.7219 5.32638 15.2248 4.48756 13.5822 4.15612C11.9396 3.82468 10.2343 4.01734 8.70709 4.70694C7.17983 5.39654 5.90764 6.54825 5.07 7.99959M4.062 12.9996C4.27133 14.6622 4.99739 16.2171 6.13774 17.445C7.2781 18.6728 8.7752 19.5116 10.4178 19.8431C12.0604 20.1745 13.7657 19.9818 15.2929 19.2922C16.8202 18.6027 18.0924 17.4509 18.93 15.9996" stroke="#9295A0" stroke-width="2" stroke-linecap="round" stroke-linejoin="round"/>
</svg>
