<svg width="57" height="62" viewBox="0 0 57 62" fill="none" xmlns="http://www.w3.org/2000/svg">
<g filter="url(#filter0_d_3374_87183)">
<path d="M49.8354 15.995L30.1621 4.63665C28.8369 3.87112 27.2035 3.87112 25.8783 4.63665L6.20442 15.995C4.87918 16.7605 4.0625 18.1742 4.0625 19.7053V42.422C4.0625 43.9525 4.87918 45.3668 6.20442 46.1323L25.8777 57.4907C26.5938 57.9041 27.3997 58.0919 28.1989 58.0588C28.8784 58.0305 29.5524 57.8421 30.1621 57.4907L49.8354 46.1323C51.1606 45.3668 51.9773 43.9531 51.9773 42.422V19.7053C51.9773 18.1748 51.1606 16.7605 49.8354 15.995Z" fill="white"/>
</g>
<g clip-path="url(#clip0_3374_87183)">
<g filter="url(#filter1_d_3374_87183)">
<path d="M19.221 33.6293L23.8905 20.9674C23.9631 20.7705 24.1444 20.6406 24.3463 20.6406H27.0504C27.2523 20.6406 27.4337 20.7705 27.5062 20.9674L32.1757 33.6293C32.2988 33.9633 32.0629 34.3224 31.7199 34.3224H29.4993C29.2934 34.3224 29.1094 34.1872 29.0396 33.9848L28.2131 31.5825C28.1433 31.3801 27.9597 31.2449 27.7533 31.2449H23.643C23.437 31.2449 23.253 31.3801 23.1832 31.5825L22.3567 33.9848C22.2869 34.1872 22.1033 34.3224 21.8969 34.3224H19.6763C19.3334 34.3224 19.0974 33.9633 19.2206 33.6293H19.221ZM25.239 25.6728L24.4627 27.9153C24.3476 28.2475 24.5836 28.5985 24.922 28.5985H26.4751C26.8136 28.5985 27.0495 28.248 26.9345 27.9153L26.1582 25.6728C26.0028 25.2242 25.3948 25.2242 25.2395 25.6728H25.239Z" fill="#231815"/>
<path d="M33.3608 20.6406H35.195C35.5106 20.6406 35.7667 20.9079 35.7667 21.2374V33.7252C35.7667 34.0547 35.5106 34.3219 35.195 34.3219H33.3608C33.0451 34.3219 32.7891 34.0547 32.7891 33.7252V21.2374C32.7891 20.9079 33.0451 20.6406 33.3608 20.6406Z" fill="#231815"/>
</g>
<g filter="url(#filter2_d_3374_87183)">
<path d="M44.191 19.7985L29.5561 11.349C28.5703 10.7795 27.3552 10.7795 26.3694 11.349L11.734 19.7985C10.7482 20.3679 10.1406 21.4196 10.1406 22.5585V39.4575C10.1406 40.596 10.7482 41.6481 11.734 42.2176L26.3689 50.667C26.9017 50.9746 27.5011 51.1143 28.0957 51.0897C28.6012 51.0686 29.1026 50.9285 29.5561 50.667L44.191 42.2176C45.1769 41.6481 45.7844 40.5964 45.7844 39.4575V22.5585C45.7844 21.42 45.1769 20.3679 44.191 19.7985Z" stroke="url(#paint0_linear_3374_87183)" stroke-width="1.83558" stroke-linecap="round" stroke-linejoin="round"/>
</g>
<path d="M18.4648 35.6786V40.1181C18.4648 40.1539 18.4357 40.183 18.3999 40.183H17.5784C17.5426 40.183 17.5135 40.1539 17.5135 40.1181V37.8388C17.5135 37.7618 17.4029 37.7488 17.3854 37.824L16.8392 40.1333C16.8325 40.1624 16.8061 40.1834 16.7761 40.1834H15.72C15.69 40.1834 15.6636 40.1628 15.6569 40.1333L15.1107 37.824C15.0928 37.7488 14.9826 37.7618 14.9826 37.8388V40.1181C14.9826 40.1539 14.9535 40.183 14.9177 40.183H14.0962C14.0604 40.183 14.0312 40.1539 14.0312 40.1181V35.6786C14.0312 35.6428 14.0604 35.6137 14.0962 35.6137H15.2956C15.3251 35.6137 15.3511 35.6339 15.3587 35.6625L16.1883 38.9388C16.2048 39.0042 16.298 39.0042 16.3141 38.9388L17.1387 35.6625C17.1459 35.6339 17.1719 35.6133 17.2019 35.6133H18.4013C18.4371 35.6133 18.4662 35.6424 18.4662 35.6782L18.4648 35.6786Z" fill="#060101"/>
<path d="M22.1481 39.4773C22.1777 39.497 22.1862 39.5373 22.1665 39.5669C21.8334 40.0643 21.4332 40.2756 20.5812 40.2702C19.5085 40.2702 18.7188 39.7289 18.7188 38.5295C18.7188 37.3302 19.4628 36.6953 20.5525 36.6953C21.34 36.6953 21.8733 37.0374 22.1678 37.6512C22.1835 37.6843 22.1678 37.7237 22.1343 37.7385L21.4506 38.0308C21.4197 38.0438 21.3839 38.0322 21.3682 38.0026C21.2026 37.6865 20.9698 37.5522 20.5812 37.5522C20.0332 37.5522 19.6988 37.939 19.6988 38.53C19.6988 39.0771 20.0735 39.4142 20.6098 39.4142C20.9873 39.4142 21.2438 39.2884 21.417 39.0601C21.4376 39.0328 21.4761 39.0274 21.5043 39.0462L22.1486 39.4782L22.1481 39.4773Z" fill="#060101"/>
<path d="M22.4946 35.5391H23.3739C23.4097 35.5391 23.4388 35.5682 23.4388 35.604V39.0862C23.4388 39.4788 23.4594 39.5988 23.668 39.7421C23.69 39.7569 23.6998 39.7842 23.6935 39.8101L23.5489 40.4163C23.5418 40.4463 23.5145 40.4674 23.4836 40.4665C23.0381 40.4512 22.7874 40.3792 22.6486 40.2247C22.487 40.0425 22.4297 39.871 22.4297 39.3629V35.6044C22.4297 35.5686 22.4588 35.5395 22.4946 35.5395V35.5391Z" fill="#060101"/>
<path d="M26.29 36.8952V36.7811C26.29 36.7453 26.3191 36.7162 26.355 36.7162H27.1998C27.2356 36.7162 27.2647 36.7453 27.2647 36.7811V40.1209C27.2647 40.1567 27.2356 40.1858 27.1998 40.1858H26.355C26.3191 40.1858 26.29 40.1567 26.29 40.1209V40.0645C26.29 40.0103 26.2287 39.9812 26.1853 40.013C25.9717 40.1715 25.6015 40.2682 25.2921 40.2682C24.2311 40.2682 23.6719 39.6661 23.6719 38.4779C23.6719 37.2897 24.2888 36.6875 25.2921 36.6875C25.6274 36.6875 25.9704 36.7775 26.1844 36.9449C26.2274 36.9785 26.29 36.949 26.29 36.8943V36.8952ZM26.2842 38.4788C26.2842 38.0422 26.0881 37.5448 25.4654 37.5448C24.9348 37.5448 24.6523 37.9151 24.6523 38.4788C24.6523 39.1252 24.9751 39.4127 25.4654 39.4127C26.0765 39.4127 26.2842 38.9596 26.2842 38.4788Z" fill="#060101"/>
<path d="M28.9592 36.6723C29.7068 36.6723 30.1088 37.0493 30.3045 37.5341C30.3197 37.5713 30.2982 37.6134 30.2593 37.6228L29.4933 37.8001C29.4668 37.8064 29.4404 37.7947 29.4248 37.7723C29.3146 37.6134 29.149 37.523 28.9189 37.523C28.665 37.523 28.5267 37.617 28.5267 37.7217C28.5267 37.8265 28.5902 37.904 29.23 38.1305C30.026 38.4121 30.3775 38.7658 30.3775 39.2909C30.3775 39.8712 29.9105 40.2799 28.9184 40.2799C28.16 40.2799 27.6886 39.9132 27.4889 39.3997C27.4755 39.3648 27.4929 39.3254 27.5283 39.3138L28.2957 39.0541C28.3243 39.0442 28.3565 39.0554 28.3718 39.0819C28.5083 39.3164 28.7787 39.4288 29.0281 39.4288C29.2775 39.4288 29.3858 39.3406 29.3858 39.2189C29.3858 39.0805 29.3052 38.9538 28.6131 38.7273C27.8117 38.4622 27.5346 38.1967 27.5346 37.7549C27.5346 37.0864 28.1054 36.6719 28.9587 36.6719L28.9592 36.6723Z" fill="#060101"/>
<path d="M31.967 36.6723C32.7146 36.6723 33.1167 37.0493 33.3123 37.5341C33.3275 37.5713 33.306 37.6134 33.2671 37.6228L32.5011 37.8001C32.4747 37.8064 32.4482 37.7947 32.4326 37.7723C32.3224 37.6134 32.1568 37.523 31.9267 37.523C31.6728 37.523 31.5345 37.617 31.5345 37.7217C31.5345 37.8265 31.5981 37.904 32.2378 38.1305C33.0334 38.4121 33.3853 38.7658 33.3853 39.2909C33.3853 39.8712 32.9183 40.2799 31.9262 40.2799C31.1678 40.2799 30.6964 39.9132 30.4967 39.3997C30.4833 39.3648 30.5007 39.3254 30.5361 39.3138L31.3035 39.0541C31.3321 39.0442 31.3644 39.0554 31.3796 39.0819C31.5161 39.3164 31.7865 39.4288 32.0359 39.4288C32.2853 39.4288 32.3936 39.3406 32.3936 39.2189C32.3936 39.0805 32.313 38.9538 31.6209 38.7273C30.8195 38.4622 30.5424 38.1967 30.5424 37.7549C30.5424 37.0864 31.1132 36.6719 31.9665 36.6719L31.967 36.6723Z" fill="#060101"/>
<path d="M33.6016 40.1246V37.061C33.6016 37.0252 33.6307 36.9961 33.6665 36.9961H34.5225C34.5583 36.9961 34.5874 37.0252 34.5874 37.061V40.1246C34.5874 40.1604 34.5583 40.1896 34.5225 40.1896H33.6665C33.6307 40.1896 33.6016 40.1604 33.6016 40.1246Z" fill="#060101"/>
<path d="M38.013 40.1864H37.1624C37.1266 40.1864 37.0975 40.1573 37.0975 40.1215V38.1695C37.0975 37.711 36.8955 37.5284 36.5669 37.5284C36.1747 37.5284 35.9097 37.81 35.9097 38.2411V40.121C35.9097 40.1568 35.8806 40.1859 35.8448 40.1859H34.9946C34.9588 40.1859 34.9297 40.1568 34.9297 40.121V36.8362C34.9297 36.8004 34.9588 36.7713 34.9946 36.7713H35.8448C35.8806 36.7713 35.9097 36.8004 35.9097 36.8362V36.8599C35.9097 36.9119 35.9679 36.9428 36.0109 36.9137C36.2356 36.7615 36.524 36.6992 36.8727 36.6992C37.6338 36.6992 38.0779 37.2297 38.0779 37.9922V40.121C38.0779 40.1568 38.0488 40.1859 38.013 40.1859V40.1864Z" fill="#060101"/>
<path d="M41.8243 36.7148C41.8601 36.7148 41.8892 36.7439 41.8892 36.7797V39.9029C41.8892 40.5659 41.5776 40.9971 40.0957 40.9913H39.113C39.0786 40.9913 39.0504 40.9644 39.0481 40.9304L39.0042 40.2149C39.002 40.1778 39.0316 40.146 39.0692 40.146H39.9171C40.7762 40.146 40.9146 39.9526 40.9146 39.7372C40.9146 39.6853 40.8568 39.6553 40.8134 39.6835C40.6021 39.821 40.2269 39.9029 39.9171 39.9029C38.9254 39.9029 38.2969 39.4167 38.2969 38.2952C38.2969 37.3174 38.9599 36.6875 39.9229 36.6875C40.2578 36.6875 40.5967 36.7775 40.8089 36.9445C40.8519 36.9781 40.9146 36.949 40.9146 36.8943V36.7806C40.9146 36.7448 40.9437 36.7157 40.9795 36.7157H41.8243V36.7148ZM40.9088 38.2947C40.9088 37.8582 40.6433 37.5323 40.0899 37.5323C39.6171 37.5323 39.2769 37.8085 39.2769 38.2947C39.2769 38.781 39.6288 39.0572 40.0899 39.0572C40.6263 39.0572 40.9088 38.7756 40.9088 38.2947Z" fill="#060101"/>
<path d="M34.5825 35.7054L34.0842 35.418L33.5859 35.7054V36.2807L34.0842 36.5686L34.5825 36.2807V35.7054Z" stroke="url(#paint1_linear_3374_87183)" stroke-width="0.268621" stroke-linecap="round" stroke-linejoin="round"/>
</g>
<defs>
<filter id="filter0_d_3374_87183" x="0.00138774" y="0.00138774" width="56.1482" height="62.2341" filterUnits="userSpaceOnUse" color-interpolation-filters="sRGB">
<feFlood flood-opacity="0" result="BackgroundImageFix"/>
<feColorMatrix in="SourceAlpha" type="matrix" values="0 0 0 0 0 0 0 0 0 0 0 0 0 0 0 0 0 0 127 0" result="hardAlpha"/>
<feOffset dx="0.0559627" dy="0.0559627"/>
<feGaussianBlur stdDeviation="2.05854"/>
<feColorMatrix type="matrix" values="0 0 0 0 0 0 0 0 0 0 0 0 0 0 0 0 0 0 0.5 0"/>
<feBlend mode="normal" in2="BackgroundImageFix" result="effect1_dropShadow_3374_87183"/>
<feBlend mode="normal" in="SourceGraphic" in2="effect1_dropShadow_3374_87183" result="shape"/>
</filter>
<filter id="filter1_d_3374_87183" x="19.1315" y="20.5847" width="16.802" height="13.9074" filterUnits="userSpaceOnUse" color-interpolation-filters="sRGB">
<feFlood flood-opacity="0" result="BackgroundImageFix"/>
<feColorMatrix in="SourceAlpha" type="matrix" values="0 0 0 0 0 0 0 0 0 0 0 0 0 0 0 0 0 0 127 0" result="hardAlpha"/>
<feOffset dx="0.0559627" dy="0.0559627"/>
<feGaussianBlur stdDeviation="0.0559627"/>
<feColorMatrix type="matrix" values="0 0 0 0 0 0 0 0 0 0 0 0 0 0 0 0 0 0 0.5 0"/>
<feBlend mode="normal" in2="BackgroundImageFix" result="effect1_dropShadow_3374_87183"/>
<feBlend mode="normal" in="SourceGraphic" in2="effect1_dropShadow_3374_87183" result="shape"/>
</filter>
<filter id="filter2_d_3374_87183" x="9.1706" y="9.94794" width="37.7004" height="42.2317" filterUnits="userSpaceOnUse" color-interpolation-filters="sRGB">
<feFlood flood-opacity="0" result="BackgroundImageFix"/>
<feColorMatrix in="SourceAlpha" type="matrix" values="0 0 0 0 0 0 0 0 0 0 0 0 0 0 0 0 0 0 127 0" result="hardAlpha"/>
<feOffset dx="0.0559627" dy="0.0559627"/>
<feGaussianBlur stdDeviation="0.0559627"/>
<feColorMatrix type="matrix" values="0 0 0 0 0 0 0 0 0 0 0 0 0 0 0 0 0 0 0.5 0"/>
<feBlend mode="normal" in2="BackgroundImageFix" result="effect1_dropShadow_3374_87183"/>
<feBlend mode="normal" in="SourceGraphic" in2="effect1_dropShadow_3374_87183" result="shape"/>
</filter>
<linearGradient id="paint0_linear_3374_87183" x1="8.46667" y1="23.9119" x2="47.4583" y2="38.1036" gradientUnits="userSpaceOnUse">
<stop stop-color="#D8413D"/>
<stop offset="0.49" stop-color="#A9221D"/>
<stop offset="1" stop-color="#5A0E12"/>
</linearGradient>
<linearGradient id="paint1_linear_3374_87183" x1="33.4176" y1="35.8146" x2="34.7509" y2="36.1719" gradientUnits="userSpaceOnUse">
<stop stop-color="#D8413D"/>
<stop offset="0.49" stop-color="#A9221D"/>
<stop offset="1" stop-color="#5A0E12"/>
</linearGradient>
<clipPath id="clip0_3374_87183">
<rect width="37.8326" height="42.3669" fill="white" transform="translate(9.10938 9.88281)"/>
</clipPath>
</defs>
</svg>
