<svg width="111" height="42" viewBox="0 0 111 42" fill="none" xmlns="http://www.w3.org/2000/svg">
<path d="M97.114 35.0622C96.2959 33.8582 94.5264 33.8437 93.6885 35.0341L89.898 40.4198C89.508 40.9739 88.8727 41.3037 88.195 41.3037H84.8251C83.1251 41.3037 82.1413 39.3768 83.1383 37.9998L90.253 28.1735C90.7772 27.4495 90.781 26.4718 90.2624 25.7438L83.4084 16.1229C82.4263 14.7443 83.4119 12.832 85.1046 12.832H88.8172C89.5024 12.832 90.1438 13.1691 90.5324 13.7334L93.9417 18.6841C94.763 19.8765 96.5203 19.8878 97.3568 18.706L100.892 13.7114C101.282 13.1599 101.916 12.832 102.592 12.832H105.809C107.508 12.832 108.492 14.7579 107.496 16.135L100.698 25.535C100.173 26.2609 100.171 27.2412 100.693 27.9691L107.892 38.0075C108.88 39.3854 107.896 41.3037 106.2 41.3037H102.458C101.768 41.3037 101.123 40.9622 100.736 40.3916L97.114 35.0622Z" fill="black"/>
<path d="M78.5855 39.2211V14.9146C78.5855 13.7644 77.6531 12.832 76.5029 12.832H72.774C71.6238 12.832 70.6914 13.7644 70.6914 14.9146V39.2211C70.6914 40.3713 71.6238 41.3037 72.774 41.3037H76.5029C77.6531 41.3037 78.5855 40.3713 78.5855 39.2211Z" fill="black"/>
<path d="M35.3779 2.03516C36.5281 2.03516 37.4605 2.96754 37.4605 4.1177V39.2202C37.4605 40.3704 36.5281 41.3028 35.3779 41.3028H31.649C30.4988 41.3028 29.5664 40.3704 29.5664 39.2202V4.11771C29.5664 2.96755 30.4988 2.03516 31.649 2.03516H35.3779Z" fill="black"/>
<path d="M15.0994 41.7246C12.2031 41.7246 9.60708 41.1072 7.31127 39.8724C5.01546 38.6023 3.21413 36.8559 1.90729 34.6332C0.635762 32.4105 0 29.8879 0 27.0655C0 24.243 0.635762 21.7204 1.90729 19.4977C3.21413 17.275 5.01546 15.5462 7.31127 14.3114C9.60708 13.0413 12.2031 12.4062 15.0994 12.4062C17.9603 12.4062 20.4504 13.0413 22.5696 14.3114C24.1562 15.2359 25.4261 16.467 26.3791 18.0045C26.9375 18.9053 26.5343 20.0503 25.6114 20.5713L23.005 22.0429C21.9832 22.6198 20.7149 22.2066 19.936 21.329C18.6647 19.8965 17.0348 19.1802 15.0464 19.1802C12.9978 19.1802 11.3024 19.8858 9.96028 21.297C8.65343 22.7083 8.00001 24.6311 8.00001 27.0655C8.00001 29.4998 8.65343 31.4226 9.96028 32.8339C11.3024 34.2451 12.9978 34.9507 15.0464 34.9507C17.0439 34.9507 18.6698 34.2465 19.9243 32.8382C20.7141 31.9514 22.0001 31.5281 23.0303 32.1187L25.6192 33.6029C26.5379 34.1295 26.9334 35.2756 26.3708 36.1728C25.4186 37.6911 24.1515 38.9243 22.5696 39.8724C20.4504 41.1072 17.9603 41.7246 15.0994 41.7246Z" fill="black"/>
<path d="M73.0146 2.60426L73.3939 2.08313C74.1466 1.04863 75.6846 1.0345 76.4562 2.05499L76.9111 2.65658C77.1704 2.9994 77.5411 3.24103 77.9594 3.33979C79.2204 3.6375 79.7904 5.10765 79.0597 6.17759L78.5611 6.90761C78.3126 7.27145 78.2185 7.71896 78.2994 8.15206C78.5417 9.44974 77.2494 10.4997 76.0289 9.9968L75.5943 9.81777C75.1545 9.63656 74.6629 9.6263 74.2159 9.789L73.3351 10.1096C72.0532 10.5762 70.7514 9.46824 71.0072 8.12825C71.0871 7.70981 71.0123 7.27661 70.7967 6.90919L70.3963 6.22663C69.7408 5.10939 70.3664 3.67778 71.6315 3.39972L71.8823 3.34459C72.3376 3.24453 72.7404 2.98116 73.0146 2.60426Z" fill="url(#paint0_linear_1235_45219)"/>
<path d="M53.5088 12.4062C57.7114 12.4063 60.9253 13.4645 63.1504 15.5811C65.4109 17.6626 66.541 20.821 66.541 25.0547V39.2188C66.541 40.3689 65.6091 41.3017 64.459 41.3018H59.9238C59.5393 41.3018 59.2223 41.0104 59.1816 40.6367V38.835C59.1812 38.4947 58.7345 38.2194 58.5029 38.5576C58.3917 38.7608 57.9969 39.323 57.2324 39.9668C55.6717 41.1369 53.5661 41.7246 50.9121 41.7246C48.8285 41.7246 47.0274 41.354 45.5088 40.6133C43.9901 39.8724 42.8241 38.8493 42.0117 37.5439C41.1994 36.2386 40.793 34.7568 40.793 33.0986C40.793 30.4526 41.747 28.3706 43.6543 26.8535C45.5616 25.3366 48.4936 24.5781 52.4492 24.5781H56.5645C57.7146 24.5781 58.7179 23.6219 58.3965 22.5176C58.2975 22.1776 58.1691 21.8763 58.0117 21.6143C57.0581 19.8505 55.2038 18.9689 52.4492 18.9688C51.0011 18.9688 49.57 19.2151 48.1572 19.709C47.6974 19.8621 47.2593 20.0351 46.8428 20.2275C45.6213 20.7918 44.0421 20.4529 43.4531 19.2432L42.5498 17.3867C42.1141 16.4916 42.3666 15.3999 43.2305 14.9053C44.3676 14.2542 45.6564 13.7205 47.0977 13.3057C49.1815 12.7059 51.3189 12.4062 53.5088 12.4062ZM53.2969 29.3936C50.0827 29.3936 48.4756 30.5058 48.4756 32.7285C48.4757 33.7867 48.8637 34.6336 49.6406 35.2686C50.4177 35.8683 51.4956 36.168 52.873 36.168C54.2503 36.1679 55.4514 35.8498 56.4756 35.2148C57.4997 34.5445 58.6472 33.2646 58.6475 31.9521V31.4766C58.6475 30.3264 57.7146 29.3936 56.5645 29.3936H53.2969Z" fill="black"/>
<defs>
<linearGradient id="paint0_linear_1235_45219" x1="74.8202" y1="0.00503408" x2="78.5647" y2="10.0527" gradientUnits="userSpaceOnUse">
<stop stop-color="#03AEFF"/>
<stop offset="1" stop-color="#287FEC"/>
</linearGradient>
</defs>
</svg>
