<svg width="41" height="38" viewBox="0 0 41 38" fill="none" xmlns="http://www.w3.org/2000/svg">
<path d="M14.5075 9.72853L19.075 0L23.9922 10.4058C24.8581 11.8489 26.1665 12.4839 27.1671 12.7148L40.0399 14.2734L31.1502 22.5281C28.1484 24.7216 29.2456 26.819 29.5343 28.3583L31.1502 37.6521C30.4575 37.6521 25.4738 34.7658 23.0686 33.3227C19.9284 31.4755 16.8343 32.553 15.6798 33.3227L7.02101 37.9407C7.11337 36.1397 8.27762 30.3606 8.79715 28.1285C9.74363 24.0621 8.29022 22.911 7.44358 22.1221C3.92234 18.3699 1.42373 15.9554 0 14.3391C3.05897 13.3578 7.25144 12.9457 10.6 12.253C13.9485 11.5603 14.0087 10.7766 14.5075 9.72853Z" fill="url(#paint0_linear_1053_42612)"/>
<defs>
<linearGradient id="paint0_linear_1053_42612" x1="28.5683" y1="-4.21925" x2="-6.95364" y2="27.1963" gradientUnits="userSpaceOnUse">
<stop stop-color="#02AFFF"/>
<stop offset="0.264627" stop-color="#2787FF"/>
<stop offset="0.46382" stop-color="#0675FF"/>
<stop offset="0.652461" stop-color="#2385FF"/>
<stop offset="1" stop-color="#02AFFF"/>
</linearGradient>
</defs>
</svg>
