<svg width="24" height="24" viewBox="0 0 24 24" fill="none" xmlns="http://www.w3.org/2000/svg">
<path d="M12.0029 3.83594C16.5128 3.83622 20.1688 7.4923 20.1689 12.002C20.1689 16.5118 16.5128 20.1667 12.0029 20.167C10.1979 20.1669 8.52932 19.5796 7.17773 18.5879L4.98828 19.4346C4.7776 19.5159 4.5381 19.4722 4.37012 19.3213C4.20249 19.1703 4.13395 18.9377 4.19238 18.7197L4.9082 16.0479C4.22641 14.8551 3.83596 13.4734 3.83594 12.002C3.83611 7.49219 7.49299 3.83611 12.0029 3.83594ZM12.0029 5.03516C8.15557 5.03533 5.03533 8.15509 5.03516 12.002L5.04004 12.252C5.08393 13.4938 5.45336 14.652 6.06445 15.6455C6.15086 15.786 6.17546 15.956 6.13281 16.1152L5.65625 17.8896L7.05957 17.3477L7.13477 17.3242C7.31366 17.281 7.50443 17.3227 7.65039 17.4395C8.84329 18.3954 10.3557 18.9677 12.0029 18.9678L12.3613 18.958C16.0422 18.7713 18.9697 15.7286 18.9697 12.002L18.96 11.6436C18.7792 8.08194 15.9233 5.22568 12.3613 5.04492L12.0029 5.03516ZM9.81348 10.8193C10.4658 10.8193 10.9951 11.3477 10.9951 12C10.9951 12.6523 10.4658 13.1816 9.81348 13.1816C9.16137 13.1814 8.63281 12.6521 8.63281 12C8.63286 11.3479 9.1614 10.8196 9.81348 10.8193ZM14.1787 10.8193C14.8309 10.8194 15.3593 11.3478 15.3594 12C15.3594 12.6522 14.8309 13.1815 14.1787 13.1816C13.5264 13.1816 12.9971 12.6523 12.9971 12C12.9971 11.3477 13.5264 10.8193 14.1787 10.8193Z" fill="#464C53"/>
</svg>
