<svg width="20" height="20" viewBox="0 0 20 20" fill="none" xmlns="http://www.w3.org/2000/svg">
<path d="M3.47461 11.8857C6.59448 10.5904 10.1095 10.6312 13.1982 11.999L13.2754 12.0332C14.1195 12.407 14.6641 13.2438 14.6641 14.167V15.999C14.664 16.3672 14.3652 16.666 13.9971 16.666H2.33105C1.96291 16.666 1.66414 16.3672 1.66406 15.999V14.1953C1.66406 13.2523 2.23168 12.4017 3.10254 12.04L3.47461 11.8857ZM12.6582 13.2178C9.90344 11.9978 6.76886 11.962 3.98633 13.1172L3.61426 13.2715C3.24099 13.4265 2.99707 13.7912 2.99707 14.1953V15.332H13.3311V14.167C13.3311 13.7713 13.0971 13.4131 12.7354 13.2529L12.6582 13.2178ZM15.4131 4.99902C15.7812 4.99902 16.0799 5.297 16.0801 5.66504V7.24902H17.6631C18.0311 7.24902 18.3298 7.54707 18.3301 7.91504C18.3301 8.28323 18.0313 8.58203 17.6631 8.58203H16.0801V10.165C16.0801 10.5332 15.7813 10.832 15.4131 10.832C15.045 10.8319 14.7471 10.5331 14.7471 10.165V8.58203H13.1641C12.7959 8.58203 12.4971 8.28323 12.4971 7.91504C12.4973 7.54707 12.796 7.24902 13.1641 7.24902H14.7471V5.66504C14.7472 5.29711 15.0452 4.9992 15.4131 4.99902ZM8.16406 3.33203C9.91296 3.33203 11.3311 4.75012 11.3311 6.49902C11.3309 8.24778 9.91286 9.66504 8.16406 9.66504C6.41527 9.66504 4.99725 8.24778 4.99707 6.49902C4.99707 4.75012 6.41516 3.33203 8.16406 3.33203ZM8.16406 4.66504C7.15154 4.66504 6.33105 5.4865 6.33105 6.49902C6.33123 7.5114 7.15165 8.33203 8.16406 8.33203C9.17648 8.33203 9.99689 7.5114 9.99707 6.49902C9.99707 5.4865 9.17658 4.66504 8.16406 4.66504Z" fill="#002A63"/>
</svg>
