<svg width="20" height="20" viewBox="0 0 20 20" fill="none" xmlns="http://www.w3.org/2000/svg">
<path d="M2.5 5.78125H3.98333C5.77667 5.78125 6.67333 5.78125 7.4 6.16125C7.71023 6.324 7.99287 6.53464 8.2375 6.78542C8.81083 7.37125 9.06833 8.23042 9.58333 9.94792C10.0983 11.6654 10.3567 12.5246 10.9292 13.1104C11.1742 13.3612 11.4567 13.5721 11.7675 13.7346C12.4933 14.1146 13.39 14.1146 15.1842 14.1146H17.5M17.5 14.1146L15 11.6146M17.5 14.1146L15 16.6146" stroke="#002A63" stroke-width="1.5" stroke-linecap="round"/>
<path d="M2.5 14.2188H3.98333C5.77667 14.2188 6.67333 14.2188 7.4 13.8388C7.71023 13.676 7.77679 13.6124 8.03075 13.3878M11.2055 6.65154C11.4992 6.37965 11.6341 6.29544 12.0331 6.15497C12.7986 5.88542 13.39 5.88542 15.1842 5.88542H17.5M17.5 5.88542L15 8.38542M17.5 5.88542L15 3.38542" stroke="#002A63" stroke-width="1.5" stroke-linecap="round"/>
</svg>
