<svg width="24" height="24" viewBox="0 0 24 24" fill="none" xmlns="http://www.w3.org/2000/svg">
<path d="M8.21475 18.8166C7.29295 18.8166 6.16274 18.8061 5.23566 18.7951C4.25054 18.7835 3.46094 17.9805 3.46094 16.9953V14.4102" stroke="#464C53" stroke-linecap="round" stroke-linejoin="round"/>
<path d="M8.21475 5.17946C7.29295 5.17946 6.16274 5.18999 5.23566 5.20096C4.25054 5.21262 3.46094 6.0156 3.46094 7.00079V9.58594" stroke="#464C53" stroke-linecap="round" stroke-linejoin="round"/>
<path d="M15.7892 18.8166C16.711 18.8166 17.8412 18.8061 18.7682 18.7951C19.7534 18.7835 20.543 17.9805 20.543 16.9953V14.4102" stroke="#464C53" stroke-linecap="round" stroke-linejoin="round"/>
<path d="M15.7892 5.17946C16.711 5.17946 17.8412 5.18999 18.7682 5.20096C19.7534 5.21262 20.543 6.0156 20.543 7.00079V9.58594" stroke="#464C53" stroke-linecap="round" stroke-linejoin="round"/>
<rect x="7.25781" y="9.01953" width="9.48828" height="5.84766" rx="1" stroke="#464C53" stroke-width="1.2" stroke-linecap="round" stroke-linejoin="round"/>
</svg>
