<svg width="22" height="22" viewBox="0 0 22 22" fill="none" xmlns="http://www.w3.org/2000/svg">
<g clip-path="url(#clip0_1524_53193)">
<path d="M15 5.00171L19 9.00171M17 3.00161C17.2547 2.70065 17.5697 2.45567 17.925 2.28229C18.2803 2.10892 18.6681 2.01095 19.0636 1.99463C19.4592 1.97831 19.8538 2.04399 20.2224 2.1875C20.5909 2.33101 20.9254 2.54919 21.2043 2.82813C21.4833 3.10708 21.7006 3.44067 21.8425 3.80765C21.9845 4.17463 22.0478 4.56695 22.0286 4.95959C22.0094 5.35224 21.908 5.7366 21.7309 6.08818C21.5538 6.43976 21.3049 6.75085 21 7.00161L7.5 20.5016L2 22.0016L3.5 16.5016L17 3.00161Z" stroke="#8A949E" stroke-width="1.5" stroke-linecap="round" stroke-linejoin="round"/>
</g>
<defs>
<clipPath id="clip0_1524_53193">
<rect width="21.8124" height="21.8124" fill="white"/>
</clipPath>
</defs>
</svg>
