<svg width="25" height="25" viewBox="0 0 25 25" fill="none" xmlns="http://www.w3.org/2000/svg">
<rect width="24.375" height="24.375" rx="12.1875" fill="black" fill-opacity="0.3"/>
<path d="M12.1844 5.6875C12.8126 5.6875 13.3219 6.19678 13.3219 6.825C13.3219 7.45322 12.8126 7.9625 12.1844 7.9625C11.5562 7.9625 11.0469 7.45322 11.0469 6.825C11.0469 6.19678 11.5562 5.6875 12.1844 5.6875Z" fill="white"/>
<path d="M12.1844 11.0513C12.8126 11.0513 13.3219 11.5605 13.3219 12.1888C13.3219 12.817 12.8126 13.3263 12.1844 13.3263C11.5562 13.3263 11.0469 12.817 11.0469 12.1888C11.0469 11.5605 11.5562 11.0513 12.1844 11.0513Z" fill="white"/>
<path d="M13.3219 17.5494C13.3219 16.9211 12.8126 16.4119 12.1844 16.4119C11.5562 16.4119 11.0469 16.9211 11.0469 17.5494C11.0469 18.1776 11.5562 18.6869 12.1844 18.6869C12.8126 18.6869 13.3219 18.1776 13.3219 17.5494Z" fill="white"/>
</svg>
