<svg width="24" height="24" viewBox="0 0 24 24" fill="none" xmlns="http://www.w3.org/2000/svg">
<path d="M9.98207 8.34517C11.0768 7.82264 12.2641 7.65661 13.4186 7.85396C13.7317 7.90762 13.9425 8.20485 13.8893 8.51802C13.8357 8.83147 13.5377 9.04227 13.2243 8.98873C12.3094 8.83237 11.3629 8.96194 10.4782 9.38423C9.97876 9.62762 9.49857 9.96213 9.04653 10.3999C8.81807 10.6211 8.45331 10.6156 8.23207 10.3872C8.01108 10.1587 8.01737 9.79387 8.24574 9.57271C8.78257 9.05291 9.36393 8.64629 9.97914 8.34713L9.98207 8.34517Z" fill="#131416"/>
<path d="M16.5812 4.83984H5.39041C4.39383 4.83984 3.58594 5.64773 3.58594 6.64431V16.6681M20.4062 6.17691V15.3993C20.4062 16.3958 19.5984 17.2037 18.6018 17.2037H8.98985" stroke="#131416" stroke-width="1.2" stroke-linecap="round" stroke-linejoin="round"/>
<path d="M8.07031 20.4377C8.49762 20.4373 13.4784 20.4375 15.9154 20.4377" stroke="#131416" stroke-width="1.2" stroke-linecap="round" stroke-linejoin="round"/>
<path d="M3.11719 20.3203L21.2891 2.79297" stroke="#131416" stroke-width="1.2" stroke-linecap="round" stroke-linejoin="round"/>
<path d="M12.7852 13.0781C12.8786 13.2244 12.9336 13.3982 12.9336 13.585C12.9334 14.1039 12.5147 14.5244 11.998 14.5244C11.798 14.5244 11.613 14.461 11.4609 14.3535L12.7852 13.0781Z" fill="#131416"/>
<path d="M16.2891 9.66406C16.3471 9.75491 16.3828 9.86252 16.3828 9.97852C16.3826 10.3005 16.1223 10.5614 15.8018 10.5615C15.6775 10.5615 15.5632 10.5209 15.4688 10.4541L16.2891 9.66406Z" fill="#131416"/>
</svg>
