<svg width="24" height="24" viewBox="0 0 24 24" fill="none" xmlns="http://www.w3.org/2000/svg">
<path d="M16.8994 4.13281C17.497 4.13281 17.9763 4.13172 18.3623 4.1582C18.7525 4.18501 19.0961 4.24183 19.416 4.37891L19.415 4.37988C19.9241 4.59749 20.3586 4.95112 20.6387 5.41211H20.6396C20.8228 5.71313 20.8966 6.03769 20.9307 6.38672C20.9636 6.72492 20.9629 7.14018 20.9629 7.63574V16.3623C20.9629 16.858 20.9636 17.2732 20.9307 17.6113C20.8966 17.9601 20.8225 18.2841 20.6396 18.585C20.3599 19.0453 19.9247 19.4015 19.415 19.6191L19.4141 19.6182C19.0946 19.7548 18.7516 19.8121 18.3623 19.8389C17.9769 19.8653 17.4986 19.8652 16.9023 19.8652H11.918C11.3215 19.8652 10.8428 19.8653 10.457 19.8389C10.0669 19.8121 9.72327 19.7552 9.40332 19.6182V19.6172C8.89442 19.3993 8.45995 19.0449 8.18066 18.585V18.584C7.99805 18.2828 7.92463 17.9587 7.89062 17.6094C7.8577 17.2708 7.8584 16.855 7.8584 16.3584V16.3135C7.85858 15.9823 8.12675 15.7129 8.45801 15.7129C8.78912 15.7131 9.05744 15.9824 9.05762 16.3135V16.3584C9.05762 16.8785 9.059 17.2261 9.08496 17.4932C9.10991 17.7494 9.154 17.8745 9.20703 17.9619C9.3256 18.1571 9.51498 18.3342 9.76465 18.4629L9.87598 18.5156L9.99316 18.5576C10.1221 18.5963 10.2913 18.6246 10.5391 18.6416C10.8742 18.6646 11.3049 18.665 11.918 18.665H16.9023C17.5153 18.665 17.9455 18.6646 18.2803 18.6416C18.6105 18.6189 18.8023 18.5765 18.9443 18.5156C19.2495 18.3853 19.4785 18.1852 19.6143 17.9619V17.9609C19.6669 17.8742 19.7115 17.7498 19.7363 17.4951C19.7623 17.2287 19.7627 16.8815 19.7627 16.3623V7.63574C19.7627 7.11668 19.7623 6.76954 19.7363 6.50293C19.7114 6.24732 19.667 6.12282 19.6143 6.03613L19.6133 6.03516C19.4779 5.8123 19.2502 5.61331 18.9443 5.48242L18.9434 5.48145C18.8014 5.42066 18.61 5.37817 18.2793 5.35547C17.9439 5.33249 17.5133 5.33203 16.8994 5.33203H11.9209C11.3071 5.33203 10.8765 5.3325 10.541 5.35547C10.2103 5.37815 10.0187 5.4215 9.87598 5.48242C9.57051 5.61298 9.34289 5.81164 9.20703 6.03516C9.15401 6.12252 9.10992 6.24795 9.08496 6.50391C9.05896 6.77093 9.05762 7.11859 9.05762 7.63867V7.68359C9.05753 8.01479 8.78918 8.28303 8.45801 8.2832C8.12669 8.2832 7.85848 8.01489 7.8584 7.68359V7.63867C7.8584 7.14206 7.85766 6.72626 7.89062 6.3877C7.92466 6.03844 7.99797 5.71421 8.18066 5.41309C8.46044 4.95224 8.89423 4.59692 9.4043 4.37891C9.7245 4.24214 10.0685 4.18498 10.459 4.1582C10.845 4.13177 11.3237 4.13281 11.9209 4.13281H16.8994ZM11.2568 8.85059C11.4912 8.61629 11.8712 8.61627 12.1055 8.85059L14.8311 11.5762C15.0652 11.8105 15.0653 12.1905 14.8311 12.4248L12.1055 15.1504C11.8712 15.3847 11.4912 15.3847 11.2568 15.1504C11.0225 14.9161 11.0225 14.5361 11.2568 14.3018L12.958 12.6006H3.62695C3.29558 12.6006 3.02734 12.3314 3.02734 12C3.02758 11.6688 3.29573 11.4004 3.62695 11.4004H12.958L11.2568 9.69824C11.0226 9.46394 11.0226 9.08488 11.2568 8.85059Z" fill="#BD2C0F"/>
</svg>
