<svg width="24" height="24" viewBox="0 0 24 24" fill="none" xmlns="http://www.w3.org/2000/svg">
<path d="M5.61719 7.29297L8.49202 7.32433M18.5539 7.43408L11.7117 7.43408M5.56661 11.9299C5.56661 11.9299 10.4553 11.9873 13.8234 12.024M18.5033 12.0711L17.0659 12.0554M5.51603 16.5669L6.95344 16.5826M18.4528 16.708L10.3409 16.708" stroke="#464C53" stroke-width="1.2" stroke-linecap="round"/>
<path d="M10.1255 8.83158C10.9021 8.84005 11.5385 8.21735 11.547 7.44075C11.5555 6.66414 10.9328 6.02772 10.1562 6.01924C9.37956 6.01077 8.74313 6.63347 8.73466 7.41007C8.72619 8.18668 9.34889 8.82311 10.1255 8.83158Z" stroke="#464C53" stroke-width="1.2" stroke-linecap="round"/>
<path d="M15.3794 13.5269C16.156 13.5354 16.7924 12.9127 16.8009 12.1361C16.8094 11.3595 16.1867 10.723 15.4101 10.7146C14.6335 10.7061 13.997 11.3288 13.9886 12.1054C13.9801 12.882 14.6028 13.5184 15.3794 13.5269Z" stroke="#464C53" stroke-width="1.2" stroke-linecap="round"/>
<path d="M8.69971 18.0894C9.47631 18.0979 10.1127 17.4752 10.1212 16.6986C10.1297 15.922 9.50699 15.2855 8.73039 15.2771C7.95378 15.2686 7.31735 15.8913 7.30888 16.6679C7.30041 17.4445 7.9231 18.0809 8.69971 18.0894Z" stroke="#464C53" stroke-width="1.2" stroke-linecap="round"/>
</svg>
