<svg width="24" height="24" viewBox="0 0 24 24" fill="none" xmlns="http://www.w3.org/2000/svg">
<path d="M8.33073 9.50377H6.4974C6.01117 9.50377 5.54485 9.69852 5.20103 10.0452C4.85722 10.3918 4.66406 10.862 4.66406 11.3522V17.8217C4.66406 18.3119 4.85722 18.7821 5.20103 19.1287C5.54485 19.4754 6.01117 19.6701 6.4974 19.6701H17.4974C17.9836 19.6701 18.4499 19.4754 18.7938 19.1287C19.1376 18.7821 19.3307 18.3119 19.3307 17.8217V11.3522C19.3307 10.862 19.1376 10.3918 18.7938 10.0452C18.4499 9.69852 17.9836 9.50377 17.4974 9.50377H15.6641M8.33073 9.50377V6.75936C8.33073 5.7789 8.71704 4.83858 9.40467 4.14529C10.0923 3.45199 11.0249 3.0625 11.9974 3.0625C12.9699 3.0625 13.9025 3.45199 14.5901 4.14529C15.2778 4.83858 15.6641 5.7789 15.6641 6.75936V9.50377M8.33073 9.50377H15.6641M11.9974 13.2006V15.9733" stroke="#464C53" stroke-width="1.2" stroke-linecap="round" stroke-linejoin="round"/>
</svg>
