<svg width="20" height="20" viewBox="0 0 20 20" fill="none" xmlns="http://www.w3.org/2000/svg">
<path d="M10.0381 2.16797C12.8206 2.16812 15.2658 3.60491 16.666 5.77344V3.33496C16.666 2.96677 16.9648 2.66797 17.333 2.66797C17.701 2.66814 17.999 2.96688 17.999 3.33496V7.50098C17.999 7.86906 17.701 8.16779 17.333 8.16797H13.166C12.7978 8.16797 12.499 7.86917 12.499 7.50098C12.4992 7.13297 12.798 6.83496 13.166 6.83496H15.75C14.6317 4.84661 12.4936 3.50114 10.0381 3.50098C6.42259 3.50098 3.49725 6.41479 3.49707 10.001C3.49707 13.5873 6.42248 16.501 10.0381 16.501C13.3189 16.5008 16.0323 14.1007 16.5049 10.9766C16.56 10.6126 16.8997 10.362 17.2637 10.417C17.6276 10.4721 17.8782 10.8118 17.8232 11.1758C17.2526 14.9476 13.9826 17.8347 10.0381 17.835C5.69315 17.835 2.16406 14.3307 2.16406 10.001C2.16424 5.67138 5.69326 2.16797 10.0381 2.16797Z" fill="#002A63"/>
</svg>
