<svg width="24" height="24" viewBox="0 0 24 24" fill="none" xmlns="http://www.w3.org/2000/svg">
<path d="M9.50879 8.3457C10.6035 7.82315 11.7909 7.6572 12.9453 7.85449C13.2586 7.90813 13.4694 8.20528 13.416 8.51855C13.3624 8.83195 13.0644 9.04284 12.751 8.98926C11.8361 8.83296 10.8896 8.96245 10.0049 9.38477C9.50552 9.62817 9.02525 9.96267 8.57324 10.4004C8.34478 10.6214 7.97996 10.6161 7.75879 10.3877C7.5379 10.1593 7.5443 9.7944 7.77246 9.57324C8.30925 9.05345 8.89069 8.64683 9.50586 8.34766L9.50879 8.3457Z" fill="#5C180A"/>
<path d="M16.5812 4.83984H5.39041C4.39383 4.83984 3.58594 5.64773 3.58594 6.64431V16.6681M20.4062 6.17691V15.3993C20.4062 16.3958 19.5984 17.2037 18.6018 17.2037H8.98985" stroke="#5C180A" stroke-width="1.2" stroke-linecap="round" stroke-linejoin="round"/>
<path d="M8.07031 20.4377C8.49762 20.4373 13.4784 20.4375 15.9154 20.4377" stroke="#5C180A" stroke-width="1.2" stroke-linecap="round" stroke-linejoin="round"/>
<path d="M3.11719 20.3203L21.2891 2.79297" stroke="#5C180A" stroke-width="1.2" stroke-linecap="round" stroke-linejoin="round"/>
<path d="M12.7852 13.0781C12.8786 13.2244 12.9336 13.3982 12.9336 13.585C12.9334 14.1039 12.5147 14.5244 11.998 14.5244C11.798 14.5244 11.613 14.461 11.4609 14.3535L12.7852 13.0781Z" fill="#5C180A"/>
<path d="M16.2891 9.66406C16.3471 9.75491 16.3828 9.86252 16.3828 9.97852C16.3826 10.3005 16.1223 10.5614 15.8018 10.5615C15.6775 10.5615 15.5632 10.5209 15.4688 10.4541L16.2891 9.66406Z" fill="#5C180A"/>
</svg>
