<svg width="24" height="24" viewBox="0 0 24 24" fill="none" xmlns="http://www.w3.org/2000/svg">
<path d="M11.9912 12.6465C12.5079 12.6465 12.9276 13.0669 12.9277 13.5859C12.9277 14.1051 12.508 14.5264 11.9912 14.5264C11.4747 14.5261 11.0557 14.105 11.0557 13.5859C11.0558 13.067 11.4747 12.6467 11.9912 12.6465ZM12.0029 10.332C12.8357 10.332 13.6429 10.6752 14.3096 11.3135C14.5393 11.5334 14.5471 11.8982 14.3271 12.1279C14.1072 12.3567 13.7431 12.3649 13.5137 12.1455C13.037 11.6891 12.5069 11.4844 12.0029 11.4844C11.4991 11.4845 10.9696 11.6893 10.4932 12.1455C10.2635 12.365 9.89854 12.3573 9.67871 12.1279C9.45895 11.8984 9.46711 11.5335 9.69629 11.3135C10.3628 10.6753 11.1703 10.3322 12.0029 10.332ZM9.50879 8.3457C11.1055 7.5835 12.8911 7.58326 14.4805 8.34668L14.4834 8.34766C15.0956 8.64537 15.6874 9.05213 16.2197 9.57715C16.4461 9.80047 16.4489 10.1652 16.2256 10.3916C16.0022 10.6175 15.6374 10.6206 15.4111 10.3975C14.9721 9.96439 14.4855 9.62873 13.9824 9.38379V9.38477C12.7092 8.77319 11.2888 8.77187 10.0049 9.38477C9.50557 9.62816 9.02522 9.96271 8.57324 10.4004C8.34478 10.6213 7.97992 10.616 7.75879 10.3877C7.53786 10.1593 7.54441 9.79445 7.77246 9.57324C8.30921 9.05348 8.89073 8.64683 9.50586 8.34766L9.50879 8.3457Z" fill="#464C53"/>
<rect x="3.58594" y="4.83984" width="16.8203" height="12.3639" rx="1.80447" stroke="#464C53" stroke-width="1.2" stroke-linecap="round" stroke-linejoin="round"/>
<path d="M8.07031 20.4377C8.49762 20.4373 13.4784 20.4375 15.9154 20.4377" stroke="#464C53" stroke-width="1.2" stroke-linecap="round" stroke-linejoin="round"/>
</svg>
