<svg width="24" height="24" viewBox="0 0 24 24" fill="none" xmlns="http://www.w3.org/2000/svg">
<path d="M18.0673 8.50867L9.50733 4.22867C3.75733 1.34867 1.39733 3.70867 4.27733 9.45867L5.14733 11.1987C5.39733 11.7087 5.39733 12.2987 5.14733 12.8087L4.27733 14.5387C1.39733 20.2887 3.74733 22.6487 9.50733 19.7687L18.0673 15.4887C21.9073 13.5687 21.9073 10.4287 18.0673 8.50867ZM14.8373 12.7487H9.43733C9.02733 12.7487 8.68733 12.4087 8.68733 11.9987C8.68733 11.5887 9.02733 11.2487 9.43733 11.2487H14.8373C15.2473 11.2487 15.5873 11.5887 15.5873 11.9987C15.5873 12.4087 15.2473 12.7487 14.8373 12.7487Z" fill="url(#paint0_linear_1705_29559)"/>
<defs>
<linearGradient id="paint0_linear_1705_29559" x1="-0.5655" y1="-18.6259" x2="21.7797" y2="-18.006" gradientUnits="userSpaceOnUse">
<stop stop-color="#0E9FFF"/>
<stop offset="1" stop-color="#0977FF"/>
</linearGradient>
</defs>
</svg>
