<svg width="24" height="24" viewBox="0 0 24 24" fill="none" xmlns="http://www.w3.org/2000/svg">
<path d="M11.418 9.46875C12.3688 9.01487 13.4008 8.86938 14.4053 9.04102C14.7316 9.09697 14.9511 9.407 14.8955 9.7334C14.8395 10.0597 14.5295 10.2802 14.2031 10.2246C13.4492 10.0958 12.6688 10.2005 11.9375 10.5488L11.9385 10.5498C11.5236 10.7516 11.1234 11.0291 10.7461 11.3945C10.5082 11.6247 10.1289 11.6184 9.89844 11.3809C9.66793 11.1428 9.67413 10.7628 9.91211 10.5322C10.3766 10.0825 10.88 9.72941 11.4141 9.46973L11.418 9.46875Z" fill="#131416"/>
<path d="M17.0734 6.59375H7.55778C6.71039 6.59375 6.02344 7.2807 6.02344 8.12809V16.6514M20.3258 7.73066V15.5724C20.3258 16.4198 19.6388 17.1068 18.7914 17.1068H10.6184" stroke="#131416" stroke-width="1.2" stroke-linecap="round" stroke-linejoin="round"/>
<path d="M9.83594 19.8517C10.1993 19.8514 14.4345 19.8516 16.5066 19.8517" stroke="#131416" stroke-width="1.2" stroke-linecap="round" stroke-linejoin="round"/>
<path d="M5.625 19.7551L21.0766 4.85156" stroke="#131416" stroke-width="1.2" stroke-linecap="round" stroke-linejoin="round"/>
<path d="M13.8467 13.5938C13.9252 13.7176 13.9727 13.8637 13.9727 14.0215C13.9725 14.4626 13.6168 14.8201 13.1777 14.8203C13.0084 14.8203 12.8517 14.7664 12.7227 14.6758L13.8467 13.5938Z" fill="#131416"/>
<path d="M16.8262 10.6875C16.8753 10.7646 16.9042 10.8558 16.9043 10.9541C16.9043 11.2281 16.6829 11.4502 16.4102 11.4502C16.3053 11.4501 16.2088 11.4165 16.1289 11.3604L16.8262 10.6875Z" fill="#131416"/>
<path d="M14.464 4.05469H5.41406C4.30949 4.05469 3.41406 4.95012 3.41406 6.05469V14.1123" stroke="#131416" stroke-width="1.2" stroke-linecap="round" stroke-linejoin="round"/>
</svg>
