<svg width="25" height="25" viewBox="0 0 25 25" fill="none" xmlns="http://www.w3.org/2000/svg">
<path d="M7.56806 6.5393L11.3776 1.1414C11.7716 0.583157 12.5969 0.575638 13.001 1.12661L16.9817 6.55434C17.121 6.74422 17.3228 6.87887 17.5516 6.93456L22.6206 8.16855C23.2939 8.33244 23.6004 9.11475 23.2178 9.69241L19.2148 15.7357C19.0724 15.9507 19.0185 16.2124 19.0645 16.4661L20.0993 22.1788C20.2411 22.9616 19.4565 23.5885 18.7243 23.2774L12.557 20.6574C12.3207 20.557 12.0549 20.5514 11.8146 20.6415L4.49464 23.3886C3.76621 23.662 3.01837 23.0354 3.15999 22.2703L4.23986 16.4369C4.2828 16.205 4.24237 15.9653 4.12571 15.7603L0.670918 9.68878C0.339009 9.10548 0.664529 8.36727 1.31906 8.21896L6.97204 6.93796C7.21317 6.88333 7.4255 6.7413 7.56806 6.5393Z" fill="url(#paint0_linear_1340_48572)"/>
<defs>
<linearGradient id="paint0_linear_1340_48572" x1="12" y1="0.00592417" x2="20.2385" y2="21.4473" gradientUnits="userSpaceOnUse">
<stop stop-color="#03AEFF"/>
<stop offset="1" stop-color="#287FEC"/>
</linearGradient>
</defs>
</svg>
