<svg width="25" height="25" viewBox="0 0 25 25" fill="none" xmlns="http://www.w3.org/2000/svg">
<path d="M11.8952 1.42986C12.0922 1.15074 12.5047 1.14716 12.7067 1.42263L16.6879 6.85039C16.8968 7.13509 17.1996 7.33676 17.5427 7.42029L22.6116 8.65417C22.9482 8.73612 23.1021 9.12789 22.9108 9.41672L18.9069 15.4597C18.6934 15.7821 18.6129 16.175 18.6818 16.5555L19.7168 22.2679C19.7877 22.6592 19.3956 22.9723 19.0296 22.817L12.8623 20.197C12.5079 20.0464 12.1085 20.0378 11.748 20.1731L4.42808 22.9208C4.06403 23.0571 3.6902 22.7438 3.76082 22.3615L4.841 16.528C4.90539 16.1802 4.84448 15.8209 4.66961 15.5134L1.21453 9.44185C1.04857 9.1502 1.2121 8.7805 1.53936 8.70634L7.19207 7.42529C7.55367 7.3433 7.87251 7.13014 8.08631 6.8272L11.8952 1.42986Z" fill="white" stroke="#E5E5E5"/>
</svg>
