<svg width="24" height="24" viewBox="0 0 24 24" fill="none" xmlns="http://www.w3.org/2000/svg">
<path fill-rule="evenodd" clip-rule="evenodd" d="M11.1484 4.13304C11.3254 4.12839 11.4977 4.19473 11.626 4.31664L15.123 7.6389C15.0545 7.63525 14.9855 7.63403 14.916 7.63402C14.4068 7.63402 13.9202 7.73303 13.4756 7.91332L11.1914 5.74339L5.83203 11.3996V18.135H8.83203C8.89088 18.135 8.9476 18.1441 9.00195 18.1584V19.4426C8.94751 19.457 8.89099 19.468 8.83203 19.468H5.16602C4.79792 19.468 4.49925 19.169 4.49902 18.801V11.134C4.49902 10.9635 4.56444 10.7989 4.68164 10.675L10.6826 4.34105C10.8042 4.21284 10.9718 4.13781 11.1484 4.13304ZM10.9893 16.7678C13.2527 14.8411 16.5792 14.8412 18.8428 16.7678C19.259 17.1221 19.499 17.6411 19.499 18.1877V19.468H10.333V18.1877C10.333 17.6411 10.573 17.1221 10.9893 16.7678ZM17.9785 17.7834C16.2132 16.2808 13.6189 16.2808 11.8535 17.7834C11.7487 17.8727 11.6827 17.9984 11.6689 18.134H18.1631C18.1493 17.9983 18.0834 17.8727 17.9785 17.7834ZM14.917 8.96605C16.2977 8.96614 17.4168 10.0854 17.417 11.466C17.417 12.8469 16.2978 13.9669 14.917 13.967C13.5361 13.967 12.417 12.8469 12.417 11.466C12.4172 10.151 13.4322 9.07444 14.7217 8.97484C14.7692 8.97088 14.8171 8.96914 14.8652 8.968C14.8824 8.96766 14.8997 8.96605 14.917 8.96605ZM14.917 10.3C14.2727 10.3 13.7502 10.8218 13.75 11.466C13.75 12.1105 14.2726 12.633 14.917 12.633C15.5613 12.6329 16.084 12.1104 16.084 11.466C16.0838 10.8218 15.5612 10.3001 14.917 10.3Z" fill="#464C53"/>
</svg>
