<svg width="16" height="16" viewBox="0 0 16 16" fill="none" xmlns="http://www.w3.org/2000/svg">
<rect width="13.3333" height="13.3333" rx="6.66667" transform="matrix(1 0 0 -1 1.33325 14.667)" fill="#0B78CB"/>
<path d="M7.93265 6.29434C8.37448 6.29434 8.73265 5.93616 8.73265 5.49434C8.73265 5.05251 8.37448 4.69434 7.93265 4.69434C7.49082 4.69434 7.13265 5.05251 7.13265 5.49434C7.13265 5.93616 7.49082 6.29434 7.93265 6.29434Z" fill="white"/>
<path d="M6.93265 6.95443C6.85901 6.95443 6.79932 7.01412 6.79932 7.08776V7.62109C6.79932 7.69473 6.85901 7.75443 6.93265 7.75443H7.40036C7.474 7.75443 7.53369 7.81412 7.53369 7.88776V10.3962H6.79984C6.7262 10.3962 6.6665 10.4559 6.6665 10.5295V11.0628C6.6665 11.1365 6.7262 11.1962 6.79984 11.1962H9.19984C9.27348 11.1962 9.33317 11.1365 9.33317 11.0628V10.5295C9.33317 10.4559 9.27348 10.3962 9.19984 10.3962H8.73369V7.08776C8.73369 7.01412 8.674 6.95443 8.60036 6.95443H6.93265Z" fill="white"/>
</svg>
